<svg xmlns="http://www.w3.org/2000/svg" xmlns:xlink="http://www.w3.org/1999/xlink" width="500" height="230" viewBox="0 0 500 230"><defs><path id="spoonPath" d="M 105,75 C 105,76 106,77 107,77 C 139,89 170,149 177,181 C 231,199 389,201 455,201 C 458,201 461,198 461,195 L 450,27 C 450,24 447,21 444,21 L 113,43 C 112,43 111,44 111,45  Z"></path><clipPath id="spoonClip"><use xlink:href="#spoonPath"></use></clipPath></defs><g><use xlink:href="#spoonPath" style="stroke:black;stroke-width:1;fill:#000080"></use><g clip-rule="nonzero" clip-path="url(#spoonClip)"><g><path id="rect5394" d="m 337.53904,53.926029 18.1628,0.199425 -0.12489,171.551716 -18.05434,-1.84468 z" style="fill:#ffff00;stroke:#ffff00;stroke-width:0.8894608" transform="matrix(0.99725744,-0.07401084,0.06574439,0.9978365,0,0)"></path><path id="rect5394-1" d="m 398.76443,48.783955 17.90459,0 -0.0784,176.637665 -17.82622,-1.24753 z" style="fill:#ff0000;stroke:#ff0000;stroke-width:0.8975876" transform="matrix(0.9981883,-0.0601674,0.0627044,0.99803214,0,0)"></path><path id="rect5394-7" d="m 367.78846,48.36276 18.00852,-0.199632 -0.11215,174.167182 -17.90915,-1.34752 z" style="fill:#00ffff;stroke:#00ffff;stroke-width:0.8922177" transform="matrix(0.99831419,-0.05804124,0.06411709,0.99794238,0,0)"></path></g></g></g></svg>