<svg xmlns="http://www.w3.org/2000/svg" xmlns:xlink="http://www.w3.org/1999/xlink" width="500" height="230" viewBox="0 0 500 230"><defs><path id="spoonPath" d="M 105,75 C 105,76 106,77 107,77 C 139,89 170,149 177,181 C 231,199 389,201 455,201 C 458,201 461,198 461,195 L 450,27 C 450,24 447,21 444,21 L 113,43 C 112,43 111,44 111,45  Z"></path><clipPath id="spoonClip"><use xlink:href="#spoonPath"></use></clipPath></defs><g><use xlink:href="#spoonPath" style="stroke:black;stroke-width:1;fill:#F5F5F5"></use><g clip-rule="nonzero" clip-path="url(#spoonClip)"><g transform="translate(264,20) scale(0.070)"><path style="fill:#15392D" d="M1224 2062c-2,0 -3,0 -4,0 0,0 0,0 -1,0 -1,0 -2,0 -3,0 0,0 -1,0 -1,0 -1,0 -2,0 -3,0 -87,0 -173,0 -260,0 154,-147 183,-421 188,-660l-41 0c-8,0 -15,-5 -15,-12l0 -34c-250,1 -493,23 -640,140 0,-67 0,-140 0,-208 0,-1 0,-2 0,-3 0,-67 0,-141 0,-208 147,117 390,140 640,141l0 -36c0,-7 7,-12 15,-12l41 0c-5,-240 -33,-516 -188,-665 87,0 173,0 260,0 1,0 2,0 3,0 0,0 1,0 1,0 1,0 2,0 3,0 1,0 1,0 1,0 1,0 2,0 4,0 86,0 172,0 259,0 -155,149 -183,425 -188,665l43 0c9,0 16,5 16,12l0 36c251,-1 498,-23 646,-141 0,67 0,141 0,208 0,1 0,2 0,3 0,68 0,141 0,208 -148,-118 -395,-139 -646,-140l0 34c0,7 -7,12 -16,12l-43 0c5,239 34,513 188,660 -87,0 -173,0 -259,0z"></path><path style="fill:#15392D" d="M2259 461l351 -193 30 388 -351 193 -30 -388z"></path><path style="fill:#15392D" d="M2319 1237l351 -193 30 388 -351 193 -30 -388z"></path><path style="fill:#15392D" d="M2379 2013l351 -193 30 388 -351 193 -30 -388z"></path></g></g></g></svg>