<svg xmlns="http://www.w3.org/2000/svg" xmlns:xlink="http://www.w3.org/1999/xlink" width="500" height="230" viewBox="0 0 500 230"><defs><path id="spoonPath" d="M 105,75 C 105,76 106,77 107,77 C 139,89 170,149 177,181 C 231,199 389,201 455,201 C 458,201 461,198 461,195 L 450,27 C 450,24 447,21 444,21 L 113,43 C 112,43 111,44 111,45  Z"></path><clipPath id="spoonClip"><use xlink:href="#spoonPath"></use></clipPath></defs><g><use xlink:href="#spoonPath" style="stroke:black;stroke-width:1;fill:#000032"></use><g clip-rule="nonzero" clip-path="url(#spoonClip)"><g><path d="M 470,10 145,199 500,230 z" style="fill:#00792c;stroke:none"></path><path d="m 432.14757,21.780669 12.2463,-0.840751 c 1.41425,0.238775 2.84975,0.817522 3.75407,1.651223 0.84763,1.131188 1.50412,2.26233 1.82057,3.542251 l 0.6532,9.027091 -261.11613,149.440487 -7.7643,-2.0481 -4.67062,-1.37297 -1.23447,-5.12152 -2.0185,-6.74448 -2.97685,-8.42085 z" style="fill:#ffff00;stroke:none"></path></g></g></g></svg>