<svg xmlns="http://www.w3.org/2000/svg" xmlns:xlink="http://www.w3.org/1999/xlink" width="500" height="230" viewBox="0 0 500 230"><defs><path id="spoonPath" d="M 105,75 C 105,76 106,77 107,77 C 139,89 170,149 177,181 C 231,199 389,201 455,201 C 458,201 461,198 461,195 L 450,27 C 450,24 447,21 444,21 L 113,43 C 112,43 111,44 111,45  Z"></path><clipPath id="spoonClip"><use xlink:href="#spoonPath"></use></clipPath></defs><g><use xlink:href="#spoonPath" style="stroke:black;stroke-width:1;fill:#d40000"></use><g clip-rule="nonzero" clip-path="url(#spoonClip)"><g style="fill:#ffff00" transform="matrix(0.26159327,-0.01731013,0.01858136,0.28080429,341.4759,-142.53978)"><path style="fill:#ffff00;stroke:#000000;stroke-width:3" d="m 92.4091,758.86218 0,32.45455 41.443,0 0,94.81817 -94.8976,0 0,-41.44318 -32.4545,0 0,115.26137 32.4545,0 0,-41.44319 94.8976,0 0,94.8977 -41.443,0 0,32.4546 115.2612,0 0,-32.4546 -41.443,0 0,-94.8977 94.8181,0 0,41.44319 32.4546,0 0,-115.26137 -32.4546,0 0,41.44318 -94.8181,0 0,-94.81817 41.443,0 0,-32.45455 -115.2612,0 z"></path></g></g></g></svg>