<svg xmlns="http://www.w3.org/2000/svg" xmlns:xlink="http://www.w3.org/1999/xlink" width="500" height="230" viewBox="0 0 500 230"><defs><path id="spoonPath" d="M 105,75 C 105,76 106,77 107,77 C 139,89 170,149 177,181 C 231,199 389,201 455,201 C 458,201 461,198 461,195 L 450,27 C 450,24 447,21 444,21 L 113,43 C 112,43 111,44 111,45  Z"></path><clipPath id="spoonClip"><use xlink:href="#spoonPath"></use></clipPath></defs><g><use xlink:href="#spoonPath" style="stroke:black;stroke-width:1;fill:#ffffff"></use><g clip-rule="nonzero" clip-path="url(#spoonClip)"><g transform="matrix(0.28883635,-0.01855137,0.01855137,0.28883635,344.39461,109.9603)" style="fill:#440055"><g transform="translate(-630.86889,642.81708)" style="fill:#440055"><path d="m 701.93802,-785.42365 0,107.625 -107.625,0 0,71.75 107.625,0 0,107.625 71.75,0 0,-107.625 107.625,0 0,-71.75 -107.625,0 0,-107.625 -71.75,0 z" style="fill:#440055;fill-opacity:1;fill-rule:evenodd;stroke:#000000;stroke-width:3"></path></g></g></g></g></svg>