<svg xmlns="http://www.w3.org/2000/svg" xmlns:xlink="http://www.w3.org/1999/xlink" width="500" height="230" viewBox="0 0 500 230"><defs><path id="spoonPath" d="M 105,75 C 105,76 106,77 107,77 C 139,89 170,149 177,181 C 231,199 389,201 455,201 C 458,201 461,198 461,195 L 450,27 C 450,24 447,21 444,21 L 113,43 C 112,43 111,44 111,45  Z"></path><clipPath id="spoonClip"><use xlink:href="#spoonPath"></use></clipPath></defs><g><use xlink:href="#spoonPath" style="stroke:black;stroke-width:1;fill:#8cf"></use><g clip-rule="nonzero" clip-path="url(#spoonClip)"><g><circle cx="375" cy="115" r="50" stroke="#900" stroke-width="17" fill="#8cf"></circle><circle cx="375" cy="115" r="6" stroke-width="0" fill="#900"></circle><g transform="translate(367.625,55.59467)" id="WheelSpike"><path fill="#900" stroke-width="0" d="M 0.125,-0.125 C 2.8241831,-14.718465 0.37994487,-16.164559 0.125,-20.125 C 10.772964,-14.747921 12.635905,-11.317461 15.125,-0.125 C 11.115395,-0.70054519 4.4572137,-1.0540513 0.125,-0.125 z"></path></g><use x="0" y="0" xlink:href="#WheelSpike" transform="matrix(0.5,0.8660254,-0.8660254,0.5,287.25289,-266.9912)" width="200" height="230"></use><use x="0" y="0" xlink:href="#WheelSpike" transform="matrix(-0.5,0.8660254,-0.8660254,-0.5,661.75289,-152.02153)" width="200" height="230"></use><use x="0" y="0" xlink:href="#WheelSpike" transform="matrix(0.5,-0.8660254,0.8660254,0.5,88.037439,382.42762)" width="200" height="230"></use><use x="0" y="0" xlink:href="#WheelSpike" transform="matrix(-0.5,-0.8660254,0.8660254,-0.5,463.2949,497.73017)" width="200" height="230"></use><use x="0" y="0" xlink:href="#WheelSpike" transform="matrix(-1,0,0,-1,749.3511,229.95588)" width="200" height="230"></use><g id="WheelHub" transform="matrix(1,0,0,0.9808198,0,1.7377014)"><g id="HalfHub" transform="matrix(1,0,0,0.9891943,356.81499,75.281599)"><path style="fill:#990000;stroke-width:0" d="M 18.26601,-0.98669238 C 21.039196,-0.98669238 23.811427,-0.61381072 26.452556,0.13195261 L 24.665586,4.2676717 C 21.291046,3.4501274 22.541945,3.8738881 22.22675,4.109357 C 23.011456,3.4890423 20.597372,4.3396074 21.543884,8.0913483 C 22.213371,10.745028 24.429719,17.210682 24.487937,21.197108 C 24.506445,22.464427 23.840115,26.616021 20.682395,29.594385 C 20.882093,29.729244 21.237732,29.686993 22.22675,30.45966 L 21.302881,34.118596 C 20.159131,33.536018 19.533178,33.443887 18.26601,33.368426 C 18.241806,31.99473 18.258325,-0.16313877 18.26601,-0.98669238 z"></path></g><use height="230" width="500" transform="matrix(-1,0,0,1,750.17692,0)" xlink:href="#HalfHub" y="0" x="0"></use></g><use x="0" y="0" xlink:href="#WheelHub" transform="matrix(-0.5,0.8660254,-0.8660254,-0.5,661.84266,-152.5083)" width="200" height="230"></use><use x="0" y="0" xlink:href="#WheelHub" transform="matrix(0.5,0.8660254,-0.8660254,0.5,286.7542,-267.59977)" width="200" height="230"></use><use x="0" y="0" xlink:href="#WheelHub" transform="matrix(-1,0,0,-1,750.17692,229.74097)" width="200" height="230"></use><use x="0" y="0" xlink:href="#WheelHub" transform="matrix(-0.5,-0.8660254,0.8660254,-0.5,463.06917,497.34074)" width="200" height="230"></use><use x="0" y="0" xlink:href="#WheelHub" id="use4966" transform="matrix(0.5,-0.8660254,0.8660254,0.5,87.98071,382.42606)" width="200" height="230"></use></g></g></g></svg>