<svg xmlns="http://www.w3.org/2000/svg" xmlns:xlink="http://www.w3.org/1999/xlink" width="500" height="230" viewBox="0 0 500 230"><defs><path id="spoonPath" d="M 105,75 C 105,76 106,77 107,77 C 139,89 170,149 177,181 C 231,199 389,201 455,201 C 458,201 461,198 461,195 L 450,27 C 450,24 447,21 444,21 L 113,43 C 112,43 111,44 111,45  Z"></path><clipPath id="spoonClip"><use xlink:href="#spoonPath"></use></clipPath></defs><g><use xlink:href="#spoonPath" style="stroke:black;stroke-width:1;fill:#000032"></use><g clip-rule="nonzero" clip-path="url(#spoonClip)"><path d="m 424.42026,89.075166 c -4.09987,10.072123 -9.43267,12.970924 -12.56042,13.259354 -3.12776,0.28843 -9.59816,0.8851 -9.61019,0.96737 -0.012,0.0823 -0.58156,-6.457871 -0.86999,-9.585619 -0.28842,-3.127751 1.61684,-8.926434 10.73873,-14.773437 -4.08387,-3.166333 -7.74153,-2.783318 -10.48148,-1.387772 -2.59335,-4.880959 -4.97276,-7.084454 -9.61588,-8.685959 -4.27528,2.387515 -6.21159,4.988979 -7.8686,10.261889 -2.94896,-0.870939 -6.61498,-0.578587 -10.05093,3.281195 10.03734,4.080218 12.97092,9.432671 13.25934,12.560431 0.28844,3.127751 0.87896,9.531472 0.95884,9.528382 0.0798,-0.004 -6.58227,0.61058 -9.71003,0.89902 -3.12775,0.28842 -8.92642,-1.61684 -14.76059,-10.723428 -3.17917,4.068567 -2.79616,7.726228 -1.40061,10.466178 -0.78165,0.41766 -5.96508,2.37725 -8.64986,9.61255 2.42363,4.27195 5.02509,6.20827 10.298,7.86526 -0.87094,2.94897 -0.5786,6.61498 3.28119,10.05095 4.08022,-10.03735 9.43267,-12.97094 12.56042,-13.25937 3.12776,-0.28843 9.7315,-0.8974 9.65584,-0.97022 -0.0756,-0.0729 0.53028,6.4976 0.81871,9.62536 0.28843,3.12775 -1.61684,8.92642 -10.73873,14.77342 0.1424,0.10996 4.02461,4.08003 10.48148,1.38778 0.41766,0.78165 2.37725,5.96508 9.61257,8.64985 4.27193,-2.42361 6.20825,-5.02508 7.86524,-10.29799 2.94896,0.87094 6.61498,0.57859 10.05093,-3.28119 -10.03733,-4.08022 -12.97091,-9.43267 -13.25934,-12.56044 -0.28843,-3.12775 -0.89125,-9.66482 -0.96573,-9.57677 -0.0745,0.088 6.52924,-0.52095 9.65699,-0.80938 3.12776,-0.28843 8.92643,1.61685 14.77343,10.73874 0.11405,-0.14772 4.0543,-3.99452 1.38778,-10.48148 0.78115,-0.4174 5.99207,-2.39945 8.68596,-9.6159 -2.38752,-4.27526 -4.98898,-6.21158 -10.2619,-7.868581 0.87095,-2.948962 0.59824,-6.64976 -3.28119,-10.050929 z" style="fill:#fdd400;fill-opacity:1;fill-rule:evenodd;stroke:#000000;stroke-width:0;stroke-linecap:butt;stroke-linejoin:miter"></path></g></g></svg>