<svg xmlns="http://www.w3.org/2000/svg" xmlns:xlink="http://www.w3.org/1999/xlink" width="500" height="230" viewBox="0 0 500 230"><defs><path id="spoonPath" d="M 105,75 C 105,76 106,77 107,77 C 139,89 170,149 177,181 C 231,199 389,201 455,201 C 458,201 461,198 461,195 L 450,27 C 450,24 447,21 444,21 L 113,43 C 112,43 111,44 111,45  Z"></path><clipPath id="spoonClip"><use xlink:href="#spoonPath"></use></clipPath></defs><g><use xlink:href="#spoonPath" style="stroke:black;stroke-width:1;fill:none"></use><g clip-rule="nonzero" clip-path="url(#spoonClip)"><clipPath id="vert30stripe"><rect transform="rotate(-4) scale(0.63, 0.81) translate(210, 60)" x="33%" y="0%" width="34%" height="100%" style="fill:#003399"></rect></clipPath><rect style="fill:#75AADB" x="0" y="0" width="100%" height="100%"></rect><g clip-path="url(#vert30stripe)"><rect style="fill:#F2F2F2" x="0" y="0" width="100%" height="100%"></rect></g><g><path d="M302.5 161.4c-.3-.1-.5-.4-.6-.9a619.2 619.2 0 01-2.2-21.3v-.4l-.2.4a8.2 8.2 0 00-.3 3.4c0 2.8 0 3.2-1.2 6-.9 2-1 2.3-1.2 3.4-.2 1.1-.2 2 0 3 .3 1.1.3 1.7.3 2.3-.2 1.5-1 3-1.7 3.5-.6.4-1.3.3-1.4-.1-.1-.3 0-.5.3-.9.3-.5.5-1 .6-1.7.1-.7 0-2.2-.3-3.3a8.7 8.7 0 01.5-6c1.2-3.3 1.3-3.8 1-8v-2l-.2.4a4497.2 4497.2 0 00-7.8 20c-.3.4-.9.5-1.2.1-.2 0-.2-.2-.2-.5a17276.4 17276.4 0 006.4-21.4c0-.1-1 1-1.2 1.5l-.6 1.5c-1 2.7-1.4 3.2-3.7 5.5-1.3 1.2-2 2-2.5 2.9a7 7 0 00-1 2.6c-.2 1.3-.5 2-1 2.7-1.2 1.6-3 2.4-3.6 1.6-.2-.2-.2-.5 0-.7l.5-.4c1.1-.7 1.7-2 2.2-4.4.3-1.6.4-2 .9-2.8.4-1 1-1.7 2.1-2.8 1.4-1.5 1.8-2 2.2-2.7a23.4 23.4 0 002.2-5.4l.1-.5-2.7 2.8a576221.7 576221.7 0 00-12.6 13c-.5.4-1 .2-1.2-.3-.2-.5-.8.3 12.8-16l1.6-2-1 .6c-.7.4-.9.6-1.7 1.4a12.4 12.4 0 01-5.7 3.9c-1.7.7-2.4 1-3.3 1.7-.8.6-1.4 1.2-2 2-.6.9-.8 1.2-1.4 1.7-.9.8-2 1.3-3.2 1.4-.7 0-1.1 0-1.4-.4-.2-.3-.2-.5 0-.8.1-.1.2-.2.7-.3 1.4-.2 2.5-1.1 3.9-3.3l1.1-1.5c.5-.6 1.6-1.4 2.2-1.8a48 48 0 014-1.8c1-.6 2-1.6 3.6-3.4a37.7 37.7 0 011.7-1.8l-1.8.7a86422.7 86422.7 0 01-19 8.3c-.3 0-.7-.3-.7-.6 0-.5.2-.8 1.5-1.4a1507 1507 0 0018.2-10 8 8 0 00-2.4.7 12 12 0 01-6.6 1.6c-2.1 0-2.9 0-3.8.2-1.2.3-1.8.5-2.6 1-2 1.3-2.5 1.5-4 1.6l-1.6-.1c-1-.2-1.4-.6-1.5-1.2 0-.3.3-.6.5-.6l.7.1h1.2c1.1-.1 2-.6 4-1.9a8 8 0 012.6-1.3c.6-.2.8-.2 3.4-.4 3-.2 3-.2 4.4-.7 1-.4 1.6-.6 2.8-1.3a30 30 0 012.1-1h-.3l-18.8.7c-3.3.1-3.5.1-3.8-.2-.3-.4-.2-1 .3-1.2l11.5-1.3 11.3-1.2a6.8 6.8 0 00-3.3-.5c-1.1.1-2.4 0-3.2 0-.8-.1-1.7-.4-3.6-1.1-1.9-.8-2.5-1-3.7-1.1-1-.2-1.8-.1-3.1.1-1.6.3-2.8.2-4-.3-1.5-.6-2.3-1.7-1.7-2.3.3-.4.5-.3 1 0 .9.6 1.5.7 2.8.7.7 0 1 0 2.3-.3 1.7-.4 2.4-.4 3.5-.3 1 0 1.7.3 3.6 1 2.6.9 3.2 1 7 .7l2.5-.1a2367.7 2367.7 0 00-19-7c-2-.6-2.1-.7-2.2-1.2-.1-.5.2-.9.8-.8l5.4 1.4a147157.7 147157.7 0 0016.5 4.6c-.1-.1-1-.8-1.5-1l-1.4-.6c-3-1-3.5-1.4-5.6-3.5a13.6 13.6 0 00-2.6-2.1c-1-.7-2-1-3.3-1.3a7.1 7.1 0 01-2.9-1.2c-1.2-.8-2-2-1.8-2.8 0-.3.3-.6.6-.7.3 0 .5.2.8.6l.7.8c.9.7 1.7 1 4 1.4 2.5.5 3.3.8 5.9 3.1 1.2 1.1 1.9 1.6 2.3 1.8a23.7 23.7 0 005.7 2.2 266.4 266.4 0 00-7-6.7 121482 121482 0 01-8.8-8v-1l.6-.2c.5 0 .2-.2 4.4 3.1a53042.3 53042.3 0 0113.8 10.8 6.8 6.8 0 00-2.2-2.8c-2.1-1.9-2.5-2.4-3.6-5-1-2.1-1.2-2.7-2-3.7-.6-.7-1-1-2-1.7a6.3 6.3 0 01-2.4-2.3c-.6-1-.9-2.3-.6-3 .2-.4.5-.6.8-.6.3 0 .5.1.6.7.1.7.2.9.5 1.4.5.8 1.7 1.7 3.4 2.7 1.2.7 2.3 1.9 3 3.2l.8 1.6c.7 1.4 1 2.1 1.5 2.7.6.8 1.9 2 2.8 2.7a40.3 40.3 0 012 1.7l-.6-1.4a33368.7 33368.7 0 01-8.5-18.2c-.1-.4 0-.8.2-1 .3-.3.9-.2 1.2.2l1.9 3.3a49572.7 49572.7 0 018.9 16s-.1-1.4-.3-1.8l-.7-1.8a10.7 10.7 0 01-1.3-6.1c0-1.9 0-2.7-.4-3.8-.3-1-.5-1.5-1.2-2.6a6.4 6.4 0 01-1.3-3.4c0-1 .2-2.2.6-2.6.5-.4 1-.5 1.3-.1v.5c-.2 1.2-.2 1.2 0 1.7.2 1 .6 2 1.7 3.4.8 1 1 1.5 1.3 2.2.4 1.2.5 1.7.7 4.4l.1 2.5.4 1a21 21 0 002 4.2l.5.9-.1-3.6a5791.7 5791.7 0 01-.6-18c.1-.9 1-1.1 1.5-.4a16650.9 16650.9 0 002.5 22l.2-.6a9 9 0 00.3-3.3c0-1.5 0-2.5.2-3.2l1-2.5c.9-2.3 1-2.8 1.2-4.2a7 7 0 00-.2-2.3l-.2-1.3c0-1.6.7-3.6 1.7-4.3.6-.4 1.3-.3 1.4 0 .1.3 0 .5-.3 1-.6.8-.7 1.6-.6 3.2l.3 1.8c.4 1.3.4 2 .3 3 0 1-.2 1.6-1 3.5-1 2.7-1 3-.8 6.9a138 138 0 00.2 2.3 4030.3 4030.3 0 016.5-16.8c1.3-3.5 1.4-3.6 2-3.6.4 0 .7.1.7.6.1.4 0 .7-1.7 6.2a4581.2 4581.2 0 01-4.7 15.4l.4-.4c.7-.9 1-1.4 1.4-2.5 1-2.8 1.4-3.4 3.5-5.5 2.4-2.3 3.1-3.4 3.6-5.6.3-1.2.4-1.6.8-2.2.7-1.3 2-2.5 3-2.5.5 0 .8 0 1 .3.2.3 0 .7-.6 1-.6.4-1.1 1-1.5 2-.3.7-.5 1.2-.7 2.5a8 8 0 01-.7 2.6c-.6 1.2-1.2 1.9-2.8 3.5-1 1-1.5 1.7-1.9 2.5a21.6 21.6 0 00-1.9 4.8l-.2.8 2.7-2.8a103737.6 103737.6 0 0112.6-13c.4-.3.8-.3 1 0 .3.2.3.5.2.9l-7.3 8.8-7 8.5 1.7-1 1.2-1.2c2-2 2.4-2.4 5.4-3.6 1.7-.7 2.6-1.2 3.5-1.8.8-.6 1-1 1.8-2l1.2-1.4c.9-1 2.2-1.5 3.3-1.6.7 0 1 0 1.4.3.3.3.3.6.1.8-.1.2-.2.2-.7.3-1.4.3-2.5 1.2-3.9 3.4a8.6 8.6 0 01-2.2 2.5c-.8.6-1.4 1-3.5 1.9-1.5.6-2 .9-2.9 1.7a23 23 0 00-2.3 2.4 55 55 0 01-1.7 1.8l1.8-.7 17.8-8c.9-.4 1.3-.4 1.7-.1.3.3.3.8-.2 1.2a173 173 0 01-11.9 6.3 7838.8 7838.8 0 01-7.9 4.2h.5c1.1 0 1.6-.3 3-.8 2.6-1.2 3.2-1.4 6.1-1.4 2.2 0 3.2 0 4.3-.4 1-.2 1.6-.5 2.3-1 1-.6 1.4-.9 2-1.1a7 7 0 013-.3c1.1.2 1.6.6 1.7 1.2v.5c-.3.2-.4.2-1.1 0H337c-1.1.2-2 .6-4 2a8 8 0 01-1.5.9c-1.4.5-1.4.5-4.4.7-3 .2-3 .3-4.3.7-1 .3-1.8.7-3 1.3l-1.7.8-.6.3h.3a4367.4 4367.4 0 0022-.8c.6 0 1 .3 1 .8 0 .3-.3.6-.7.8l-2.6.3a3211.7 3211.7 0 00-20 2c0 .1 0 .2.6.3 1 .2 1.7.3 2.7.3 1-.1 2.4-.1 3.2 0 .8 0 1.7.3 3.6 1.1 1.8.7 2.4.9 3.4 1 1 .2 2 .2 3.4 0 1.6-.3 2.6-.3 4 .3.8.3 1.5.9 1.7 1.3.3.5.2 1-.1 1.2-.3.1-.6 0-1-.2-.7-.6-1.4-.8-2.7-.7l-2 .2c-1.6.4-2.5.5-3.5.4-1 0-1.7-.2-2.7-.6l-1.8-.6c-2-.7-2.7-.8-6.3-.5-2.6.1-2.6.1-2.4.2a3799.2 3799.2 0 0020.3 7.3c.5.2.7.5.7.8.1.3 0 .5-.2.7-.4.2-.8.1-2-.2a22873.2 22873.2 0 01-20.5-5.8c-.2 0 .7.6 1.3 1l1.6.7a12.3 12.3 0 015.7 3.5l1.6 1.5c1.1.9 2.7 1.6 3.8 1.8 1 .2 1.5.3 2.2.6 1 .5 2 1.3 2.6 2.2l.3 1c0 .4 0 .5-.2.7-.3.4-.8.3-1.1-.3a4 4 0 00-1.3-1.2 11 11 0 00-3.9-1.1c-1.2-.2-2-.5-3-1.1a18 18 0 01-2.5-2l-2.3-1.8a23.4 23.4 0 00-5.5-2 6 6 0 00-.7-.3 168.8 168.8 0 007.5 6.8 8302.2 8302.2 0 008.8 8.1v.9c-.2.2-.3.2-.6.2h-.5l-1.5-1.1a11291.5 11291.5 0 01-16.3-12.8l1 1.5 1.4 1.4c2 1.8 2.5 2.5 3.5 5 .8 1.8 1.2 2.5 1.8 3.4.7.9 1.2 1.3 2.2 2l1.3 1c1.8 1.7 2.4 4.4 1.2 4.9-.5.2-.9-.1-.9-.7 0-1.2-1.2-2.5-3.4-3.8-1.3-.8-2-1.4-2.7-2.3-.6-.8-.8-1.1-1.5-2.7l-1.5-2.7a27.8 27.8 0 00-5-4.5 732280.5 732280.5 0 019.2 19.7c.1.4 0 .7-.2.9-.3.3-.9.2-1.2-.2a298.8 298.8 0 01-7.3-13l-2.1-3.9-1.4-2.4v.4a8 8 0 001 3.2c1.2 2.5 1.3 3.2 1.3 6 0 3 .4 4.6 1.3 6l1.2 2c.5 1.3.6 2.7.2 3.8-.2.5-.5.8-1 1-.2.1-.5 0-.7-.3v-.5c.1-.8.2-1.2 0-1.7-.2-1-.6-1.9-1.7-3.3a8.3 8.3 0 01-1.4-2.6l-.3-.8-.2-2.6a37 37 0 00-.2-3c-.3-1-1-2.6-1.8-4.2a32.4 32.4 0 01-1-2v2.4a6522.9 6522.9 0 01.5 19.5c-.2.4-.6.6-1 .4z" style="fill:#fcbf49"></path><path d="M302.5 161.4c-.5-.2-.5-.4-.8-3.4a378.9 378.9 0 00-1.3-12.1l-.7-6.8v-.3l-.2.4a9 9 0 00-.4 3.5c.1 2.7 0 3-1.1 5.8-.9 2-1 2.6-1.2 3.6-.2 1-.1 2 0 3a6 6 0 01.1 3.1c-.3 1.1-1 2.3-1.6 2.7-.5.3-1.2.2-1.3-.2-.1-.3 0-.5.3-.9s.5-1 .6-1.7c.1-.6 0-2.3-.3-3.3a7.4 7.4 0 01-.3-2.8c0-1.1.3-1.9 1-3.7 1-2.8 1.1-3.3.8-7.8l-.1-1.7a156.1 156.1 0 00-3.5 9 1666.4 1666.4 0 01-4.5 11.4c-.2.3-.7.4-1 .3-.2-.1-.4-.5-.4-.9l.8-2.7a5477.6 5477.6 0 005.7-18.6l-1.2 1.6-.6 1.4c-1 2.8-1.4 3.3-3.5 5.3a15.2 15.2 0 00-2.7 3.2c-.5.9-.7 1.3-1 2.5-.2 1.1-.3 1.6-.7 2.2-.7 1.3-2 2.4-3 2.5-.6 0-1-.2-1-.6-.1-.3 0-.5.6-.8.7-.4 1.1-1 1.5-1.9.3-.8.5-1.4.7-2.8.3-1.5.8-2.7 1.7-3.8l1.6-1.8a10 10 0 002.3-3l1.2-3.2a30 30 0 01.7-2 1485.2 1485.2 0 00-15.2 15.7c-.3.2-.8.3-1 0-.4-.2-.4-.5-.2-.9 0-.2 1.2-1.6 2.7-3.5a64508.5 64508.5 0 0111.6-13.9l-1.8 1.2c-.2 0-.6.5-1.1 1-2 2.2-2.6 2.5-5.5 3.7-2.8 1.1-4 2-5.3 3.7-.7 1-1 1.4-1.6 1.9-.9.7-2 1.1-3 1.2-.8 0-1.3-.1-1.5-.6v-.6l.8-.3c1.4-.2 2.5-1 3.9-3.3 1.4-2.2 2.3-2.9 5.7-4.4 2.2-1 2.9-1.5 5.2-4.1a35.4 35.4 0 011.7-1.8l-14 6.1c-6.7 3-6.4 3-6.8 2.9-.3 0-.7-.4-.7-.6 0-.4.2-.7.7-1a1015.6 1015.6 0 0119.6-10.4c0-.1-1 0-1.8.2-.3.1-1 .3-1.4.6a11.7 11.7 0 01-5.9 1.5c-2 0-3.4 0-4.3.2a9 9 0 00-3.6 1.6c-1.1.7-1.8.9-3 1l-1.6-.1-.9-.3c-.5-.3-.7-1-.4-1.3.2-.2.4-.2 1-.1h1.2c1.1-.1 2-.5 3.8-1.8 1-.7 1.6-1 2.6-1.3.7-.3.8-.3 3.6-.5l2.9-.2.7-.2a24.3 24.3 0 005.1-2.3l.6-.3h-1.7a60 60 0 00-4.5.2 1418.2 1418.2 0 00-16.3.5c-.7-.2-.8-1 0-1.4a43341.3 43341.3 0 0022.8-2.5l-2.2-.5H279c-2.7.1-3.5 0-6.1-1-2-.9-2.7-1-4-1.2-1-.2-1.8-.1-3.1.1-.8.2-1.1.2-1.7.2-2-.1-4-1.2-4-2.3l.1-.5c.2-.2.2-.3.5-.3l.6.3c.5.4 1.1.6 1.9.7.9.1 1.5 0 3.1-.3a9 9 0 013.4-.3c1 0 1.9.3 3.6 1 2.6.9 3.2 1 7 .7l2.6-.1-4.6-1.7a4368 4368 0 01-14.4-5.2c-2-.7-2.1-.8-2.2-1.3-.1-.5.2-.9.8-.8l5.3 1.4 16.6 4.7c.2 0-.7-.7-1.3-1l-1.7-.7c-2.9-1-3.4-1.4-5.5-3.4a14 14 0 00-3-2.4c-1-.6-1.6-.8-2.8-1-1.7-.4-3-1-3.9-2-.6-.7-1-1.6-.9-2.1 0-.3.3-.6.6-.7.3 0 .5.2.8.6.4.7 1.2 1.3 2.3 1.7l2.8.6a8 8 0 013 1l2.5 2 2.3 1.9a24 24 0 005.6 2l.8.3-.5-.4a1453.8 1453.8 0 01-16-14.5v-1l.6-.2.5.1 1.6 1.2a131835.7 131835.7 0 0016.2 12.7l-1-1.5c0-.2-.6-.8-1.2-1.2-2.2-2-2.6-2.6-3.7-5.2-.9-2-1.2-2.7-2-3.7-.7-.7-1-1-2-1.7a6.3 6.3 0 01-2.5-2.5c-.4-.7-.6-1.4-.6-2 0-.5 0-.7.2-1 .2-.3.6-.5.8-.4.3 0 .5.3.5.7 0 .7.5 1.5 1.2 2.2.6.6 1.2 1 2.3 1.7 1.1.7 1.6 1 2.2 1.7.9 1 1.1 1.4 2 3.4 1 2 1.2 2.4 2.5 3.7l3.8 3.3a60.8 60.8 0 00-2.1-4.6 8293.5 8293.5 0 00-7-15c-.2-.6 0-1.2.6-1.2.4 0 .7.2 1.1.9a3934 3934 0 0110.2 18.3l.3.5v-.7a7 7 0 00-1-2.7 10.7 10.7 0 01-1.3-6.3c0-1.7 0-2.8-.4-3.8-.3-1-.5-1.5-1.2-2.6-.7-1-.9-1.5-1.1-2.3-.3-1-.3-2.1 0-3 .4-1 1.3-1.4 1.7-.8v1.2c-.3 1 .3 2.5 1.7 4.4.7 1 1 1.6 1.4 2.4.3 1.1.4 1.6.6 4.2.1 2.3.1 2.4.3 3a24.8 24.8 0 002.4 5.1l.3.6v-.6a98 98 0 01-.3-7.2 494.7 494.7 0 01-.4-14c0-.3.4-.7.7-.7.3 0 .6.1.8.4l.5 4a1660.1 1660.1 0 002 18v.3l.2-.6c.3-1 .3-1.5.3-3.3 0-1.8 0-2.5.2-3.3 0-.3.5-1.5 1-2.7.9-2.3 1-2.8 1.2-4.2a7 7 0 00-.2-2.3c-.2-1-.2-1.6-.1-2.3.2-1.4.8-2.8 1.6-3.3.6-.4 1.3-.3 1.4 0 .1.4 0 .5-.3 1-.8 1-.9 2.5-.3 5a7 7 0 01.3 2.9c0 1-.3 1.9-1 3.6a27 27 0 00-.7 2.2c-.2.7-.3 1.7-.3 2.8l.3 4.5a176.4 176.4 0 004-10.2 2787.4 2787.4 0 004-10.3c.4-.3.8-.3 1 0 .3 0 .3.1.3.5s0 .8-1.6 6a6370.8 6370.8 0 01-4.7 15.5s1-1.2 1.1-1.6l.7-1.5c.7-2 1.1-2.8 2-3.7l1.4-1.5c1.7-1.6 2.8-3.1 3.3-4.4l.4-1.4c.2-1 .3-1.5.7-2.1.7-1.3 2-2.5 3-2.5.5 0 .8 0 1 .3.2.3 0 .7-.6 1a4 4 0 00-1.4 1.8c-.4.9-.5 1.4-.8 2.8-.4 2.5-1 3.5-3.6 6.2-1 1-1.5 1.7-1.9 2.5a24.5 24.5 0 00-1.8 4.7l-.2.7A3937.8 3937.8 0 00325.8 92c.4-.2.8-.2 1 0 .3.3.3.6.2 1l-2 2.5a29418.7 29418.7 0 01-12.4 14.8l2-1.1c0-.2.6-.7 1-1 1-1.3 2-2 2.6-2.4.5-.3 1.2-.7 2.8-1.3 2.9-1.2 4-2 5.3-3.7.3-.6.8-1.1 1-1.3 1-1 2.3-1.7 3.6-1.8.6 0 1 0 1.3.3.3.3.3.6.1.8 0 .2-.2.2-.7.3-.6.2-.9.2-1.5.6-.6.4-1.5 1.4-2.4 2.8a8.4 8.4 0 01-1.8 2.2c-1 .7-1.5 1.1-3.5 2a12.6 12.6 0 00-5.5 4.2 67 67 0 01-1.8 2 2315 2315 0 0020.4-9c.8-.2 1.3.3 1 1a11962.3 11962.3 0 00-20.2 11 6.4 6.4 0 002.7-.7c.3 0 1-.4 1.4-.6 2.1-1 3-1 5.5-1 2.7 0 3.7-.2 5.2-.7.6-.2.8-.3 2.2-1.2 1-.7 1.8-1 3-1 1 0 1.5 0 2.2.3.5.2.8.5.8.9v.5c-.3.2-.4.2-1.1 0H337c-1 .2-2 .6-3.9 2-1 .6-1.6 1-2.7 1.3l-3.4.4-3 .2-.7.2a26.8 26.8 0 00-5.1 2.3l-.5.3a322 322 0 007.8-.3 2064.3 2064.3 0 0014.4-.5c1.1.2 1.2 1.3.1 1.6l-1.5.2a6065.4 6065.4 0 01-21 2.2l2 .5h4.5c.8 0 1.7.3 3.6 1.1 1.8.7 2.3.9 3.2 1 1.3.3 2 .2 3.6 0 1.6-.3 2.7-.2 4 .3 1.5.6 2.3 1.7 1.7 2.3-.3.4-.6.3-1.1 0-.6-.6-1.8-.8-3-.7l-2 .3a9 9 0 01-3.4.3c-1-.1-1.7-.3-3.4-.9-2.9-1-3.3-1-7.2-.9l-2.6.2a46.3 46.3 0 004.4 1.6l14.2 5.2c2.4.8 2.5.9 2.6 1.4.2.5-.2.8-.8.8l-5-1.3a11928.7 11928.7 0 00-16.7-4.8c-.4-.1-.3 0 .3.4.8.6 1.3.9 2.4 1.3 2.8 1 3.6 1.4 5.6 3.4 1.4 1.3 2 1.8 2.8 2.3 1 .6 1.7 1 3 1.2 1.1.2 1.8.4 2.5.8 1.8 1 2.9 3 2 3.7-.3.3-.7.2-1-.4-.7-1-2-1.8-4.2-2.1l-2.7-.6c-1.3-.5-2-1-4-2.8l-1.9-1.6c-.8-.4-2.6-1.2-4.1-1.6a35 35 0 01-1.8-.6l-.7-.3.5.4a518 518 0 009.8 8.9 7218.6 7218.6 0 006.2 5.7v.9c-.2.2-.3.2-.6.2-.5 0 .2.6-8.6-6.3a1025.6 1025.6 0 01-9.7-7.6l1 1.5 1.3 1.3c2.1 2 2.5 2.5 3.6 5 .9 2.1 1 2.5 1.8 3.5.7.9 1.2 1.3 2.3 2 1 .7 1.4 1.1 2 1.8 1 1.3 1.3 3 .7 3.8-.1.2-.4.4-.7.3-.3 0-.4-.3-.5-.9-.2-.9-.9-1.9-2-2.7l-1.5-1c-1.2-.7-2-1.4-2.6-2.2-.5-.7-1-1.4-1.7-3-.8-1.7-1-2.1-1.9-3-.5-.7-4.3-4-4.3-3.9l1.1 2.5a10509.3 10509.3 0 018 17.7c0 .5-.6.7-1.1.5-.3-.2-.2 0-3.3-5.6a3512 3512 0 00-6.7-12l-1-2v.4c0 .8.2 1.6.9 3 1.2 2.7 1.3 3.4 1.3 6.3 0 2.7.4 4.5 1.3 6l.7 1c1.3 2 1.2 5.2-.2 5.7-.3.1-.6 0-.8-.2v-1.2c.3-1-.3-2.6-1.7-4.4-.7-1-1-1.7-1.4-2.5a13 13 0 01-.5-4l-.2-2.5-.3-.8a23.5 23.5 0 00-2.3-4.9l-.3-.6v2.5a7556.1 7556.1 0 01.6 19.5c-.2.4-.6.6-1 .4zm.6-.5v-2.2a9487.3 9487.3 0 00-.7-20.3v-.6h-.4c-.3 0-.3 0-.3.2a589 589 0 01.1 10.3 469.4 469.4 0 00-1-10.2v-.2h-.8v.5l.7 5.5c2 18.7 1.7 16.8 1.9 17 .2.2.3.2.5 0zm7.4-1.4c.6-.5.7-2.3.3-3.6-.2-.7-.4-1-1.1-2a8.5 8.5 0 01-1.5-4.7v-1.8c0-1-.1-2.8-.3-3.3-.1-.7-.4-1.3-1-2.8a8.3 8.3 0 01-1-3.4c-.1-.7-.2-1-.3-1l-.4.1-.3.1v.4c0 .7.3 1.9.5 2.4 0 .3.4 1 .7 1.6a9.2 9.2 0 011.3 3.7c0 .5 0 1.9-.2 2.5v-1a8.4 8.4 0 00-1.6-5c-.6-1.1-1.2-2.4-1.5-3.5-.2-.7-.3-.8-.4-.7l-.7.2a12.1 12.1 0 001.5 3.4 24 24 0 011.4 3.2c.4 1 .5 1.8.5 3.6.2 3 .5 4.2 1.8 6 1 1.4 1.5 2.2 1.8 3.2.2.7.2 1.6 0 2 0 .4 0 .6.2.6l.3-.2zm-15.5 1c.3-.1.8-.8 1-1.3.6-1 .7-2.3.5-3.3a8.2 8.2 0 01-.1-4c.2-1 .4-1.6 1.2-3.6l.9-2.3c.2-.9.2-1.8.2-3.3-.1-2 0-2.6.5-4 .2-.8.2-.8-.3-.9h-.4l-.2.9a8 8 0 00-.3 3.5c0 2.5 0 3.2-.6 4.5a12 12 0 01-1 1.8l.4-1c.8-2 .8-2.5.6-4.9a20.4 20.4 0 010-5h-.8v3.8c.2 3.6.1 4.6-1 7.1-.6 1.6-.9 3-.9 4.2 0 .7 0 1 .3 2l.4 2.1c0 1.5-.1 2.3-.7 3.2l-.3.5h.6zm-7.3-1.6a461 461 0 008.3-21.5l-.5-.2c-.2 0-.3.4-2 4.4a77 77 0 01-2.2 5.5 270.6 270.6 0 013.1-10c0-.2 0-.3-.3-.3l-.3-.1a123.6 123.6 0 00-1.4 4.4l-5.3 17.5c0 .5.3.7.6.3zm30.4-2v-.4a484.5 484.5 0 00-10-20.7c-.2 0-.3.2-.3.2a786.2 786.2 0 004 9.2 4373.9 4373.9 0 00-4.9-8.8l-.6.3a802.8 802.8 0 0011.8 20.1zm6.2-4.3c.3-.6 0-2-.6-2.9-.7-.9-1-1.3-2.4-2-1.6-1.2-2.7-2.6-3.9-5.5-1-2.5-1.5-3.1-3.5-5a8.4 8.4 0 01-2.3-2.7c-.5-.8-.6-1-.6-.7h-.1s-.2 0-.3.2l-.1.1.4.8a9.4 9.4 0 002.4 2.8c1.7 1.5 2.3 2.1 2.8 3.5a8.7 8.7 0 01.6 1.9l-1-2.2c-.7-1-1.2-1.6-3.1-3.1-1-.8-1.6-1.4-2.5-2.4-.5-.6-.6-.6-.7-.4l-.5.3c0 .2 1.1 1.2 2.8 2.7 2.7 2.3 3.2 3 4.3 5.3.8 1.6 1.3 2.4 1.8 3.1.7.8 1.1 1.2 2.3 1.9a13.2 13.2 0 012.4 1.6l.1.2c.2.2.8 1 1 1.5l.2.7v.4c.1.2.4.2.5-.1zm-43.4 2.8a5.5 5.5 0 002.8-4.1l.5-1.7c.5-1.2 1.5-2.6 3-4 2.2-2.2 2.4-2.5 3.5-5 .8-2.1 1-2.4 2-3.6l.5-.6-.3-.2-.4-.2s-1 1.1-1.3 1.7c-.4.6-.6 1-1 2.4l-.8 1.7c-.5 1-1.6 2.2-2.7 3l-.4.3.5-.5a9.3 9.3 0 002.7-4.5c.6-1.8.9-2.5 1.6-4l.4-.7h-.1l-.6-.3c-.2 0-1 1.7-1.4 3.4-.6 1.7-1.4 3.4-2 4.3l-1.6 1.8a11.3 11.3 0 00-2.7 3.9l-.5 1.8-.4 2a5 5 0 01-2 2.7c-.4.3-.5.4-.3.5.2.1.6.1 1-.1zm-6.7-4l3.3-3.3A17295.4 17295.4 0 01289 136l1.2-1.3-.2-.2a1 1 0 00-.3-.2l-1.6 1.5a1877.6 1877.6 0 01-6 6.2l-.3.2.3-.3a52.7 52.7 0 013.1-3.8 1135.9 1135.9 0 013.4-4l.4-.5-.3-.2a1 1 0 00-.3-.1l-4.4 5.2a34664.6 34664.6 0 01-10.4 12.8v.2h.5zm56.2-4c0-.4 0-.3-4.4-4.3a10390.7 10390.7 0 01-12.9-11.6l-.2.3-.2.2.3.3a875 875 0 007 6.6l-7.9-6.1-.3.2-.2.2 2.2 1.7a7829.7 7829.7 0 0016.4 12.7c.2 0 .2 0 .2-.3zm4.1-6c.3-.6-.6-1.9-1.7-2.6-.7-.5-1.5-.8-2.7-1a8 8 0 01-3-1c-.9-.6-1.6-1.2-3.1-2.7-2-1.8-2.5-2.2-5-3a31 31 0 01-1.7-.7l-1.8-1.3-.6-.5-.2.3-.2.4 1.5 1.2a9 9 0 002.4 1c2.4.8 3.5 1.5 4.8 3 .7.8.7.8-.4 0a9.2 9.2 0 00-4.5-2.4 18.4 18.4 0 01-4.4-1.8l-.4.7c0 .1 2 1 3.4 1.3l4 1.6 2.2 1.8c1.9 1.6 2.2 1.9 3.2 2.3.9.5 1.3.6 2.6.8 2 .3 3.1.7 4 1.4.6.3.8.5 1 1 .4.5.5.5.6.2zm-64.2 4.2a5.9 5.9 0 003-2.4c1-1.4 1.5-2 2.8-2.8.7-.4 1.4-.8 3.1-1.5a11 11 0 005.3-3.6c.8-1 1.5-1.4 2.8-2.1l.7-.5s0-.2-.2-.3c-.2-.3-.2-.3-1.2.2-1.1.7-1.6 1-2.6 2.2-1.8 2-2.6 2.5-4.7 3.2l-.8.2.8-.4c1.1-.5 2-1 2.5-1.4l1.7-1.8a18.9 18.9 0 013.4-3.4l-.5-.6c-.2 0-1.7 1.5-2.8 2.7a13 13 0 01-4.8 4l-1.6.7a10 10 0 00-3.1 2c-.4.5-1.2 1.5-1.1 1.6l-.4.4c-.4.7-1.3 1.8-1.8 2.1a4 4 0 01-2 1c-.4 0-.5.2-.5.3l.3.3c.3.1 1.1 0 1.7-.1zm33-8.3l.9-.2a17.6 17.6 0 005.7-2.7l.2-.3.7-.5c0-.1 0-.1 0 0a15 15 0 004.8-7.6 15.5 15.5 0 00-11-19 16.8 16.8 0 00-11.6 1s0 .1-.1 0a11.8 11.8 0 00-2.8 1.8c-.8.6-1.2 1-2 2a12.7 12.7 0 00-2.2 2.9 15.4 15.4 0 007.7 21.7c3 1.2 6.6 1.6 9.6 1zm-4.8-3.2c0-.8.6-1.6 1.3-2l.3-.2H300c-.6 0-1.1-.3-1.7-1-.4-.3-.7-.5-1.4-.6h-.4c-.2-.1-.2-.1 0-.3l1-.8c.7-.9 1-1 1.8-1.1h.9l.4.2.5-.2c.6-.3 1.3-.3 1.8-.1.2 0 .6.4 1 .7l1 .7.3.2h-.2l-.3.1-.5.2-.7.5c-.7.9-1 1.2-1.6 1.3-.3 0-.6.2-.4.2l1.2.5.2.1.3.5.3.8v.3l-.2-.4c-.4-.8-1-1.3-2-1.4-.4 0-1 0-1.5.4-.4.2-1 .9-1.1 1.3l-.1.4v-.3zm3.2-3l.6-.2c.5-.5 1-1 1.3-1l.4-.2.5-.1h.3l-.3-.2c-.1 0-.2-.1-.2 0l-.3-.4c-.4-.3-1.2-.6-1.8-.7l-1 .2-.6.3-.7-.2c-.6-.2-.7-.2-1 0-.6 0-1.2.4-1.7 1a4 4 0 01-.6.5h.5-.2a136.7 136.7 0 002.7-.5 3 3 0 001.7 0c.5-.3 1-.3 2-.2 1.2 0 1.2.1.2.2-.7 0-1 0-1.6.3-1 .3-1.5.3-2.4.2-1-.2-2.2-.2-2.2 0l.3.1c.3 0 .7.3 1.3.7.5.3.6.4 1.3.5.5 0 .9 0 1.5-.2zm-4.5-4.3c-.8-.3-1.1-1.3-.7-1.8.2-.3.6-.5.8-.5.2 0 .2 0 0 .2-.3.1-.5.5-.5.7 0 .2.3.5.5.6.5.2 1 0 1.2-.5v-.3l.2.3c.1.2.6.6 1 .7.4.2 1.1 0 1.5-.1.4-.2.9-.8.8-1l.2.2c.2.4.7.6 1.2.3.2 0 .3-.2.4-.4.1-.4 0-.8-.6-1h-.2l.2-.1c.3 0 .6.1.8.3.4.4.5 1 .1 1.5s-1 .7-1.5.5a5 5 0 00-.4 0v-.2h-.4c-.9.5-1.9.6-2.7.3l-.7.1c-.5.3-.8.3-1.2.2zm1.1-2.2a.8.8 0 00-.3-.1l.2-.4c.3-.4.7-1.4.9-2.2v-1.5c0-.9 0-1-.3-1.5-.5-1.3-.8-1.6-1.9-2-1-.5-2-.6-3-.5a9 9 0 00-4.5 2.1c-.7.6-.7.6-.4.2.4-.7 1.3-1.6 2.2-2.1 1-.6 1.7-.8 2.8-1a7 7 0 014.2 1.1c.4.3.5.3.7.8a9 9 0 01-.3 7.2l-.3-.1zm3.3-.8a11 11 0 01-1-2.5c-.1-.9-.2-2.5 0-3.3.1-1 .2-1.1.7-1.5a8 8 0 013-1.5c.7-.1 2-.2 2.6 0 1.1.2 2.5 1 3.3 1.7l.4.3s0 .2.2.3l.1.2-.1-.1-.7-.4-.6-.3-1.7-.7c-1-.4-1.5-.4-2.6-.4-.8 0-1 .1-1.5.3-1 .4-2.1 1-2.4 1.6a5.7 5.7 0 001 6.3l.2.3-.3.2-.2.2-.4-.7zm-8.4-1.7c-1 0-2-.5-2.6-1l.7.2c1.6.5 3 .6 4.1.2l1.2-.7c.8-.5 1-.6 1.1-.5l-.2.3c-.5.7-1.4 1.2-2.2 1.4a7 7 0 01-2.1.1zm11.3-.8c-.7-.2-.9-.2-1.3-.5-.6-.3-1-.7-1-.8 0-.2.3-.1 1.1.3 1.2.5 1.7.7 2.7.6a7 7 0 002.7-.8l.7-.3a6 6 0 01-4.9 1.5zm-11.4 0c-.8-.1-1.7-.4-2.2-.6l-.3-.3a5 5 0 013.4-1.7c1 0 1.8.3 2.7 1l.4.3-.1.2c-.6.7-2.5 1.2-4 1zm2.3-.5c.5-.2 1-.5 1-.8l-.3-.3c-.3-.3-1-.6-1.3-.7v.3c.6.4.5 1.1 0 1.6-.2.3-.2.3.6 0zm-2.4 0c-.4-.4-.4-1 0-1.5.2-.3.2-.3 0-.2-.6.2-1.5 1-1.4 1.1 0 .2 0 .2.7.5.8.4.9.4.7.1zm11.8-.4c-.8 0-1.5-.3-1.9-.6l-.1-.2.4-.4a4 4 0 012.5-1.3c.8-.1 1.4 0 2.2.3a5 5 0 011.4.9c0 .1-.7.6-1.2.8-1 .4-2.3.6-3.3.5zm.3-.3c-.5-.4-.6-1-.2-1.5.2-.3.2-.3 0-.3l-1.2.8c-.3.4-.3.5.2.8l1.5.5-.3-.3zm2.4-.4c.7-.4.9-.5.8-.7-.1-.2-1-.7-1.6-.9-.2 0-.2 0 0 .3.5.4.6 1 .3 1.4-.2.3 0 .3.5 0zm-17.9.8c-.1-.2.8-1.3 1.5-1.7a5 5 0 012.2-.8c1.3-.2 1.9 0 3 .7.9.5 1 .6 1.5.6.2 0 .3 0 .3.2l-.1.3h-.5a6 6 0 01-1-.6c-1.2-.9-2-1-3.3-.8-1.3.2-2.2.7-2.8 1.6-.4.4-.7.6-.8.5zm20.5-1.4l-.7-.5c-.6-.6-1-.9-1.8-1a4 4 0 00-1.7-.1c-1 0-1 0-1.5.3l-1.2 1c-.8.7-1 .9-1.3.7l-.2-.2c0-.2 0-.2.4-.3.3 0 .6-.2 1.3-.9 1-.7 1.5-1 2.5-1 1.4-.1 2.7.3 3.7 1.1.7.5.9 1 .5.9zm-42 19a12637.8 12637.8 0 0117.7-7.9l.2-.1-.1-.3-.2-.3a391.3 391.3 0 00-10.1 4.4 234.4 234.4 0 019.6-5.2v-.3l-.3-.3a433.6 433.6 0 00-14.6 7.7 5278.5 5278.5 0 01-6.2 3.5v.2c0 .1.2.2.5.1l3.5-1.5zm70-3.7c.3-.3 0-.5-2.1-1.3a4778.3 4778.3 0 00-20-7.1l-.2.3-.1.3 3 1 7.3 2.8a312.7 312.7 0 01-10.6-3l-.1.4v.3a13562 13562 0 0122.2 6.4l.7-.1zm-73.4-1.8c.6 0 1.5-.5 2.5-1.1a8 8 0 012.9-1.2c1-.3 2.3-.4 4-.4 1.3 0 2.8 0 3.4-.3.7-.1 1.6-.5 2.9-1 1.2-.7 1.7-.8 3-1a11 11 0 001.3-.1v-.4l-.2-.4-1 .1c-1.3.2-2 .4-3.5 1.1l-2 .9c-.9.3-2 .4-3.2.3-1.4 0-1.4-.1.2-.2 2.1-.2 2.4-.3 4.8-1.5 1.4-.7 2.4-1.1 3.7-1.5l.7-.2v-.3l-.3-.5c-.4 0-2 .7-3.3 1.4-1.2.6-2.1 1-3.4 1.4l-.9.3-2.8.2c-2.7.2-2.9.3-3.5.4a9 9 0 00-3.3 1.8c-1.9 1.3-3.6 1.8-4.8 1.4-.6-.1-.8 0-.5.3.2.4 1 .6 1.8.7l1.5-.2zm75.1-5.4c.2-.5-.9-1.3-2.1-1.7-1.1-.3-2-.3-3.8 0-1 .2-1.1.2-1.9.1-1.6-.1-2.4-.3-4.8-1.2l-2-.8c-1-.3-2-.4-4.4-.3a7 7 0 01-2.3-.2c-.5 0-1.1-.2-1.4-.3l-.6-.2v.4.5l2.3.5h4.5a9.8 9.8 0 014.2 1.5l-.6-.2a18 18 0 00-2.4-.8H321a31.7 31.7 0 01-4.6 0h-.2v.4c0 .2-.1.4 0 .4h3.7c4.3-.2 4.5-.2 7.7 1 .6.2 1.4.5 1.8.5 1.4.4 2.8.4 4.3 0 .7-.2 1.1-.3 2.2-.3h1.8c.7.1 1 .3 1.6.6l.4.3.1-.2zm-56-3.2v-.4l-5.7.1a318.5 318.5 0 01-5.6.2l11.2-1.2v-.7h-.6a183333.4 183333.4 0 01-23 2.5c-.4.2-.3.5.2.6l8.1-.2 15.4-.6v-.3zm45.2-3.3l11.1-1.2c.3-.2.3-.5 0-.6l-6.8.2-16.4.6h-.6v.3l.1.4 4.2-.1a1471.9 1471.9 0 007-.2l-9.5 1-1.7.2v.7h.8l11.8-1.3zm-45.2.1v-.3l-.6-.1a9.2 9.2 0 00-3.9-.4 10.4 10.4 0 01-5-.7l-1.4-.7 1.1.4c.8.3 1.9.5 2.5.6l2.6-.1a22 22 0 014.7 0c.2 0 .2 0 .3-.4v-.5h-3.8c-4 .3-4.6.2-6.8-.6-2.5-.9-3.2-1-4.6-1.1-.8 0-.9 0-2.3.3-1.6.3-2.7.4-3.5.4a4.9 4.9 0 01-2.3-.9h-.2c-.1-.1-.1-.1-.2 0 0 .3.1.6.6 1s1 .6 1.8.9c1 .2 1.6.2 2.7 0 1.8-.3 1.9-.3 2.7-.2 1.6 0 2.5.3 4.5 1.1a12 12 0 006.8 1.2c1.6 0 2 0 3.6.5.7.2.7.2.7-.4zm33.6-2a21.2 21.2 0 003.1-1.5c1-.5 2.8-1.2 3.6-1.3l2.6-.3c2.3 0 2.9-.2 4-.5.8-.3 1.4-.6 2.7-1.5 1.5-1 2.6-1.5 3.8-1.6h1.2c.3.2.4.2.5 0v-.3c-.4-.4-1.4-.6-2.6-.6-1.2.1-1.9.4-3.4 1.3-1 .6-1.4.8-2.4 1.1-1 .3-2.1.4-3.2.4l-2.4.1c-1.8 0-2.3.2-3.8.8-1.2.5-2.5 1-2.7 1.2l-1.5.2-1.2.1-.2.1v.4l.2.4h.4l2.5-.5 1.7-.8 1.9-.8c1.1-.4 2.5-.5 4.1-.3l-1 .2c-2.2.1-2.5.2-5 1.5-1.4.8-2.6 1.2-4.1 1.6-.2 0-.2.1-.1.4v.4c.1.1.3.1 1.3-.3zm-33-1l.1-.4a16.7 16.7 0 00-1.6-.5 579.5 579.5 0 00-8.7-3.3c.4 0 10.5 3 10.6 3l.1-.4.1-.3h-.2l-14.3-4.2c-8.9-2.5-8.2-2.3-8.4-2-.4.3 0 .4 4.2 2l18 6.4.1-.3zm40-6.7a21651.5 21651.5 0 0111.4-6c.5-.4.4-.8-.1-.7a404.3 404.3 0 00-20.5 9l-1 .5s.1 0 0 0c0 .2.2.5.3.5l9.7-4.1-4 2.2-5 2.6-.3.2.2.3.1.3 1-.5 8.1-4.3zm-38.8 3.9l.1-.3-1.2-1c-.8-.6-1.4-.8-2.7-1.2-2.4-.8-3.3-1.4-4.5-2.7-1-1.1-1-1.1.1-.2a9.1 9.1 0 004.5 2.3 18.6 18.6 0 014.4 1.8l.2-.4c.2-.3.2-.3.1-.4-.3-.2-2.3-1-3.4-1.3-1.2-.3-3.3-1.2-4-1.6l-1.8-1.4a16.6 16.6 0 00-3.2-2.5 8 8 0 00-3-1c-2-.3-3-.6-3.9-1.2-.5-.3-.8-.6-1-1.1-.4-.5-.4-.5-.6-.3-.4.6.7 2.1 2 2.9a7 7 0 002.5.8c1.9.4 3 1 4.9 2.6a21.8 21.8 0 011.8 1.7c1.3 1.2 2.1 1.7 4.4 2.5l1.7.7c.4.2 1.2.7 1.8 1.3l.6.3s0-.2.2-.3zm28.4-1.7v-.2c.2 0 1.3-1 2.4-2.3l2.6-2.6c.8-.7 1.5-1 3.7-2 2.3-1 3.4-2 4.5-3.7 1.5-2.4 3-3.6 4.3-3.7.6 0 .6-.2.2-.5-.5-.2-1.8 0-2.8.6a6 6 0 00-2 1.8 9 9 0 01-1.6 2c-1.2 1-2.1 1.5-3.8 2.2a11.6 11.6 0 00-5.6 3.7l-1.1 1a15.8 15.8 0 01-2.6 1.7l.4.6c.2 0 1.8-1 2.2-1.3l1.5-1.5a9.3 9.3 0 015.4-3.4l-.8.5c-1.1.5-2 1-2.5 1.4l-1.7 1.9a19.9 19.9 0 01-3.4 3.3l.6.6v-.1zm-26.7-1l.2-.3-.1-.2a688.7 688.7 0 00-8-7.3l3.3 2.5c4.6 3.6 5.4 4.3 5.5 4.2l.2-.2.2-.2-1-.8a2102.6 2102.6 0 01-17-13.4c-.6-.4-1-.2-.7.3L271 98a9794.3 9794.3 0 0116 14.3l.2-.2zm27.5-5.2a2474.8 2474.8 0 0111.8-14.4c0-.2-.2-.3-.4-.3a46.5 46.5 0 00-4.8 4.9l-8.2 8.5-3.3 3.5.3.2.3.2 1.5-1.5a169 169 0 016-6.2 504.8 504.8 0 01-6.4 7.9l-.4.5.2.1.3.2 3-3.6zm-25.4 3l.3-.2v-.3c-.4-.6-1-1.6-1.5-2a12 12 0 00-1.2-1.3 8.4 8.4 0 01-3.2-4.3c-.4-1-.4-1.2 0-.5l.8 1.6c.6 1 1.1 1.6 2.1 2.4a21.3 21.3 0 014 3.7l.6-.5c0-.2-1-1-2.5-2.4-2-1.8-3.1-2.8-3.7-3.7l-1-2-1-2c-.3-.6-1-1.4-1.5-1.9-.4-.4-1.5-1-1.6-1l-.4-.3a9 9 0 01-2.5-2.2c-.4-.6-.6-1-.7-1.5l-.1-.6c-.1 0-.4.1-.5.3-.1.4 0 1.2.3 2a6 6 0 002.4 2.7c1 .7 1.7 1.2 2.2 2 1 1 1.1 1.4 2 3.6 1.2 2.7 1.5 3.2 3.7 5 1.1 1.1 1.4 1.5 2.2 2.7l.5 1 .3-.3zm20.2-1.5c.4-.6.9-2 1.2-3 .6-1.9 1.4-3.5 2-4.5l1.1-1.2.7-.8c.1 0 1.6-1.6 2-2.4.5-1 .7-1.5 1-3 .3-1.7.5-2.5 1-3.4L320 89c.2 0 .4-.2.5-.3v-.2h-.5c-.7 0-1.7.7-2.4 1.7-.5.7-.7 1.3-1 2.5l-.4 1.5a11.2 11.2 0 01-2.2 3.3l-1.4 1.4c-1.8 1.7-2 2.2-3.2 5a8.2 8.2 0 01-1.7 3l-.6.7.3.2.4.2 1.4-1.7 1-2.4c.6-1.6.9-2.2 1.5-3a12 12 0 012-1.8l.3-.3-.5.6a9.8 9.8 0 00-3 5c-.4 1.6-.8 2.5-1.6 4l-.1.1.3.2.4.2.2-.3zm-17.5-.4c.3-.1.3-.2.3-.3a804.7 804.7 0 00-3.8-8.6l4.7 8.3.6-.4-1.3-2.3a20301.9 20301.9 0 01-9.8-17.6c-.3-.4-.8-.3-.7.1a739.6 739.6 0 009.7 21l.3-.2zm17.7-11.8l3.3-11c0-.3 0-.5-.3-.5a305.5 305.5 0 00-5.7 14 24320.6 24320.6 0 01-3 7.7l.8.2a705.2 705.2 0 003.9-9.8l-1.6 5.4a1589.4 1589.4 0 01-1.4 4.4c-.1.2 0 .3.2.4l.4.1 3.4-10.9zm-6.2 10v-.2-.6-2.4c-.2-3-.1-4.6.3-5.9l.6-1.8c1.1-2.7 1.2-4 .7-6.2a11 11 0 01-.4-2.1c0-1.5.1-2.4.7-3.2l.3-.5c0-.2-.5-.2-.5 0h-.1c-.2-.1-1 1-1.3 1.8-.4 1-.4 1.9-.1 3.5.3 1.4.3 2 0 3.4-.2 1-.4 1.6-1 3.2a10.6 10.6 0 00-1.3 6.2c0 1.8 0 2.1-.4 3.6l-.2.9h.8l.5-2v-2.3c0-2.5 0-3.2.6-4.6l1-1.7-.3.7c-.4 1-.7 2-.8 2.7v2.8l.2 3.2c-.2 1.6-.2 1.4.2 1.5h.5zm-8.4.5v-.9c-.2-1.6-.3-2-1.4-4.1-.7-1.4-.8-2-1-3.2 0-.8 0-1.6.2-2.5l.1 1.4.3 2c.1.6.5 1.4 1.3 2.9.7 1.3 1 1.8 1.4 3.1.3 1 .2 1 .8.8.3 0 .3 0 0-.8-.2-.8-.6-1.5-1.1-2.6-.6-1-1-1.9-1.4-2.9a10 10 0 01-.6-4c-.1-1.8-.2-2.7-.5-3.7a8 8 0 00-1.5-2.5c-.7-1-1-1.4-1.2-2-.5-1.2-.7-2.2-.5-3 .2-.5.1-.6 0-.6-.6 0-1 1.2-1 2.5.2 1 .4 1.8 1 2.8 1.2 1.7 1.3 2 1.7 3.5.2.7.3 2.2.3 3.5 0 1.3 0 2.8.2 3.5l1 2.6c.4.6.7 1.3.7 1.5.2.5.4 1.6.4 2.3v.5h.4l.4-.1zm3.3-.8l-.2-10.3v-.5.5a1099.9 1099.9 0 001.1 10v.3h.8v-.7a815.7 815.7 0 00-2.5-22.3c-.2-.2-.4-.3-.5 0a271 271 0 00.7 23h.6z" style="fill:#843511"></path></g></g></g></svg>