<svg xmlns="http://www.w3.org/2000/svg" xmlns:xlink="http://www.w3.org/1999/xlink" width="500" height="230" viewBox="0 0 500 230"><defs><path id="spoonPath" d="M 105,75 C 105,76 106,77 107,77 C 139,89 170,149 177,181 C 231,199 389,201 455,201 C 458,201 461,198 461,195 L 450,27 C 450,24 447,21 444,21 L 113,43 C 112,43 111,44 111,45  Z"></path><clipPath id="spoonClip"><use xlink:href="#spoonPath"></use></clipPath></defs><g><use xlink:href="#spoonPath" style="stroke:black;stroke-width:1;fill:#F5F5F5"></use><g clip-rule="nonzero" clip-path="url(#spoonClip)"><g transform="rotate(-2) translate(260, 15) scale(0.085)"><path fill="#1B1D56" d="M 1224,2062 C 1222,2062 1221,2062 1220,2062 C 1220,2062 1220,2062 1219,2062 C 1218,2062 1217,2062 1216,2062 C 1216,2062 1215,2062 1215,2062 C 1214,2062 1213,2062 1212,2062 C 1125,2062 1039,2062 952,2062 C 1106,1915 1135,1641 1140,1402 L 1139.1403,1354.8831 L 1084,1356 C 834,1357 591,1379 444,1496 C 444,1429 444,1356 444,1288 C 444,1287 444,1286 444,1285 C 444,1218 444,1144 444,1077 C 591,1194 834,1217 1084,1218 L 1140.4181,1218.5702 L 1140,1170 C 1135,930 1107,654 952,505 C 1039,505 1125,505 1212,505 C 1213,505 1214,505 1215,505 C 1215,505 1216,505 1216,505 C 1217,505 1218,505 1219,505 C 1220,505 1220,505 1220,505 C 1221,505 1222,505 1224,505 C 1310,505 1396,505 1483,505 C 1328,654 1300,930 1295,1170 L 1293.773,1217.0018 L 1354,1218 C 1605,1217 1852,1195 2000,1077 C 2000,1144 2000,1218 2000,1285 C 2000,1286 2000,1287 2000,1288 C 2000,1356 2000,1429 2000,1496 C 1852,1378 1605,1357 1354,1356 L 1293.8154,1355.2033 L 1295,1402 C 1300,1641 1329,1915 1483,2062 C 1396,2062 1310,2062 1224,2062 z "></path></g></g></g></svg>