<svg xmlns="http://www.w3.org/2000/svg" xmlns:xlink="http://www.w3.org/1999/xlink" width="500" height="230" viewBox="0 0 500 230"><defs><path id="spoonPath" d="M 105,75 C 105,76 106,77 107,77 C 139,89 170,149 177,181 C 231,199 389,201 455,201 C 458,201 461,198 461,195 L 450,27 C 450,24 447,21 444,21 L 113,43 C 112,43 111,44 111,45  Z"></path><clipPath id="spoonClip"><use xlink:href="#spoonPath"></use></clipPath></defs><g><use xlink:href="#spoonPath" style="stroke:black;stroke-width:1;fill:#004600"></use><g clip-rule="nonzero" clip-path="url(#spoonClip)"><g><path d="m 398.76443,48.783955 17.90459,0 -0.0797,176.659105 -17.77288,-1.07283 z" style="fill:#ffffff;stroke:#ffffff;stroke-width:0.8975876" transform="matrix(0.9981883,-0.0601674,0.0627044,0.99803214,0,0)"></path><path d="m 380.01546,49.005023 17.92068,-0.25637 -0.0121,175.582417 -17.80795,-1.53822 z" style="fill:#ff0000;stroke:#ff0000;stroke-width:0.8975876" transform="matrix(0.9981883,-0.0601674,0.0627044,0.99803214,0,0)"></path><path d="m 363.65879,27.224199 17.87215,-1.168078 10.99775,173.410529 -17.80795,-0.36422 z" style="fill:#ffffff;stroke:#ffffff;stroke-width:0.8975876"></path></g></g></g></svg>