<svg xmlns="http://www.w3.org/2000/svg" xmlns:xlink="http://www.w3.org/1999/xlink" width="500" height="230" viewBox="0 0 500 230"><defs><path id="spoonPath" d="M 105,75 C 105,76 106,77 107,77 C 139,89 170,149 177,181 C 231,199 389,201 455,201 C 458,201 461,198 461,195 L 450,27 C 450,24 447,21 444,21 L 113,43 C 112,43 111,44 111,45  Z"></path><clipPath id="spoonClip"><use xlink:href="#spoonPath"></use></clipPath></defs><g><use xlink:href="#spoonPath" style="stroke:black;stroke-width:1;fill:#ffffff"></use><g clip-rule="nonzero" clip-path="url(#spoonClip)"><g><path d="m 405.83742,24.395387 12.00785,-0.827315 7.38908,176.444758 -12.00785,-0.12253 z" style="fill:#000080;stroke:#000080;stroke-width:0.73573327"></path><path d="m 382.99609,25.922937 12.01186,-0.799737 7.39159,174.60026 -12.01186,-0.19714 z" style="fill:#0096ff;stroke:#0096ff;stroke-width:0.73471797"></path></g></g></g></svg>