<svg xmlns="http://www.w3.org/2000/svg" xmlns:xlink="http://www.w3.org/1999/xlink" width="500" height="230" viewBox="0 0 500 230"><defs><path id="spoonPath" d="M 105,75 C 105,76 106,77 107,77 C 139,89 170,149 177,181 C 231,199 389,201 455,201 C 458,201 461,198 461,195 L 450,27 C 450,24 447,21 444,21 L 113,43 C 112,43 111,44 111,45  Z"></path><clipPath id="spoonClip"><use xlink:href="#spoonPath"></use></clipPath></defs><g><use xlink:href="#spoonPath" style="stroke:black;stroke-width:1;fill:#151515"></use><g clip-rule="nonzero" clip-path="url(#spoonClip)"><g transform="rotate(-2)  translate(275,17)  scale(2.7)"><g transform="matrix(0.4701374,0.8825933,-0.8825933,0.4701374,57.211567,-103.7955)"><path transform="matrix(0.9645439,-0.7042761,0.651746,1.0422852,-34.86803,73.954067)" d="M 112.00066,59.382229 A 2.0834396,1.5152289 0 1 1 107.83378,59.382229 A 2.0834396,1.5152289 0 1 1 112.00066,59.382229 z" style="fill:#fede20;fill-opacity:1"></path><path d="M 110.09967,58.943823 L 114.65928,64.818775" style="opacity:1;fill:none;fill-rule:evenodd;stroke:#fede20;stroke-width:2;stroke-linecap:butt;stroke-linejoin:miter;stroke-opacity:1"></path></g><g transform="translate(-86.707773,-38.73351)"><path transform="matrix(0.9645439,-0.7042761,0.651746,1.0422852,-34.86803,73.954067)" d="M 112.00066,59.382229 A 2.0834396,1.5152289 0 1 1 107.83378,59.382229 A 2.0834396,1.5152289 0 1 1 112.00066,59.382229 z" style="fill:#fede20;fill-opacity:1"></path><path d="M 110.09967,58.943823 L 114.65928,64.818775" style="opacity:1;fill:none;fill-rule:evenodd;stroke:#fede20;stroke-width:2;stroke-linecap:butt;stroke-linejoin:miter;stroke-opacity:1"></path></g><g transform="matrix(0.8948254,0.4464163,-0.4464163,0.8948254,-38.257953,-84.447648)"><path transform="matrix(0.9645439,-0.7042761,0.651746,1.0422852,-34.86803,73.954067)" d="M 112.00066,59.382229 A 2.0834396,1.5152289 0 1 1 107.83378,59.382229 A 2.0834396,1.5152289 0 1 1 112.00066,59.382229 z" style="fill:#fede20;fill-opacity:1"></path><path d="M 110.09967,58.943823 L 114.65928,64.818775" style="opacity:1;fill:none;fill-rule:evenodd;stroke:#fede20;stroke-width:2;stroke-linecap:butt;stroke-linejoin:miter;stroke-opacity:1"></path></g><path style="fill:#ffffff;fill-rule:evenodd;stroke:#000000;stroke-width:1;stroke-linecap:butt;stroke-linejoin:miter;stroke-opacity:1" d="M 28.133947,27.625083 C 26.252087,27.610473 26.974757,23.176173 28.449617,19.133493 C 30.843507,19.143933 34.932237,21.383663 35.362847,25.320673 L 35.520687,26.962173 L 33.752917,35.674743 L 29.964847,31.507863 L 28.133947,27.625083 z"></path><g transform="matrix(0.6509648,0.759108,-0.759108,0.6509648,20.495457,-104.93273)"><path transform="matrix(0.9645439,-0.7042761,0.651746,1.0422852,-34.86803,73.954067)" d="M 112.00066,59.382229 A 2.0834396,1.5152289 0 1 1 107.83378,59.382229 A 2.0834396,1.5152289 0 1 1 112.00066,59.382229 z" style="fill:#fede20;fill-opacity:1"></path><path d="M 110.09967,58.943823 L 114.65928,64.818775" style="opacity:1;fill:none;fill-rule:evenodd;stroke:#fede20;stroke-width:2;stroke-linecap:butt;stroke-linejoin:miter;stroke-opacity:1"></path></g><path style="fill:#ffffff;fill-rule:evenodd;stroke:#000000;stroke-width:1;stroke-linecap:butt;stroke-linejoin:miter;stroke-opacity:1" d="M 52.188207,20.648723 C 48.984937,21.353103 45.746617,21.969873 43.854447,25.952023 L 45.369677,40.094153 L 53.198357,31.760393 C 53.842367,27.566143 54.198417,23.515863 52.188207,20.648723 z"></path><path style="fill:#ffffff;fill-rule:evenodd;stroke:#000000;stroke-width:1;stroke-linecap:butt;stroke-linejoin:miter;stroke-opacity:1" d="M 19.358247,36.306083 C 33.719007,34.386583 25.890907,59.188293 40.121577,59.188293 C 54.604787,59.188293 47.083157,33.292843 61.279577,36.306083 C 61.204607,15.923273 44.378697,28.839913 43.349367,49.690603 C 44.190717,39.213433 53.282727,28.592703 40.571447,16.608113 C 28.554297,27.879993 36.141967,42.054093 36.783377,49.943143 C 30.961667,11.078523 15.395387,27.543193 19.358247,36.306083 z"></path><path style="fill:#ffffff;fill-rule:evenodd;stroke:#000000;stroke-width:1;stroke-linecap:butt;stroke-linejoin:miter;stroke-opacity:1" d="M 28.955517,19.376023 L 31.623077,27.335683"></path><path style="fill:none;fill-rule:evenodd;stroke:#000000;stroke-width:1;stroke-linecap:butt;stroke-linejoin:miter;stroke-opacity:1" d="M 51.935667,21.027523 L 48.905207,27.846053"></path><path style="fill:#008000;fill-rule:evenodd;stroke:#000000;stroke-width:1;stroke-linecap:butt;stroke-linejoin:miter;stroke-opacity:1" d="M 29.537967,67.274035 C 27.729217,67.240585 28.877857,63.677445 31.336957,63.677445 C 34.252227,63.677445 37.743407,64.144715 37.825767,62.602075 L 37.952037,58.687735 C 39.130547,57.340865 40.477417,57.340865 41.992647,58.687735 C 42.012967,67.259665 41.847697,67.274035 29.537967,67.274035 z"></path></g></g></g></svg>