<svg xmlns="http://www.w3.org/2000/svg" xmlns:xlink="http://www.w3.org/1999/xlink" width="500" height="230" viewBox="0 0 500 230"><defs><path id="spoonPath" d="M 105,75 C 105,76 106,77 107,77 C 139,89 170,149 177,181 C 231,199 389,201 455,201 C 458,201 461,198 461,195 L 450,27 C 450,24 447,21 444,21 L 113,43 C 112,43 111,44 111,45  Z"></path><clipPath id="spoonClip"><use xlink:href="#spoonPath"></use></clipPath></defs><g><use xlink:href="#spoonPath" style="stroke:black;stroke-width:1;fill:#ef2b2d"></use><g clip-rule="nonzero" clip-path="url(#spoonClip)"><clipPath id="centerStripe"><rect x="-50" y="-15" height="30" width="500" transform="rotate(6) translate(117, 50)"></rect></clipPath><rect transform="rotate(6) translate(117, 50)" fill="white" x="-50" y="-30" width="500" height="60"></rect><g clip-path="url(#centerStripe)"><rect fill="#002868" x="0" y="0" width="100%" height="100%"></rect></g></g></g></svg>