<svg xmlns="http://www.w3.org/2000/svg" xmlns:xlink="http://www.w3.org/1999/xlink" width="500" height="230" viewBox="0 0 500 230"><defs><path id="spoonPath" d="M 105,75 C 105,76 106,77 107,77 C 139,89 170,149 177,181 C 231,199 389,201 455,201 C 458,201 461,198 461,195 L 450,27 C 450,24 447,21 444,21 L 113,43 C 112,43 111,44 111,45  Z"></path><clipPath id="spoonClip"><use xlink:href="#spoonPath"></use></clipPath></defs><g><use xlink:href="#spoonPath" style="stroke:black;stroke-width:1;fill:#202020"></use><g clip-rule="nonzero" clip-path="url(#spoonClip)"><g fill="#fff"><path d="M368.6 118.2l3-4.8 2.8-4.9-1-2.2a41.4 41.4 0 01-3.5-11.4c-.7-4.6-.6-5.8.4-8.2l.8-2 .7 1.6c3.9 10 5.3 15 4.9 17.7-.2 1 .3.6 1.6-1.2l1.2-1.6-.9-1.7A40.4 40.4 0 01376 88c-.1-2.8.3-4.4 1.3-6l.7-1 .6 2.4 2.1 6.8c1.4 4 1.4 4.4 1.2 6.2v2a7 7 0 001-1l1-1-1-4.3c-1.6-6.1-1.5-11 0-13.3.4-.6.8-1 .9-1a98.8 98.8 0 012.6 14.5c-.5 1.5-.1 1.6 1.3.2l1.2-1.1-.8-2.4c-1.6-4.4-1.7-10.4-.2-12.8l.8-1.2 1.4 6c1 4.8 1.3 6 1 7-.4 1.5-.3 1.5 1.2.2l1.1-1-.7-3.6c-.9-4.4-.8-8 .3-9.9.4-.7.8-1.3 1-1.2 0 0 .6 2.4 1 5.2.7 3.8.9 5.4.7 6.5-.4 1.6-.2 1.7 1.2.5l1-.8-.7-3.7c-.9-4.3-.8-7 .4-9l.9-1.5v1c0 .6.5 3 .9 5.1.5 2.8.6 4.4.4 5.4-.3 1.4 0 1.5 1.4.5.6-.6.6-.8 0-3.9-.7-4.2-.6-6.7.5-8.7l.9-1.5v1.1l.8 4.8a23.6 23.6 0 01.5 6.3l1-.5c1-.7 1-.7.4-3.8-.3-1.7-.5-4-.4-5 .2-1.9.9-3.9 1.4-4 .5-.1 1.8 7.8 1.5 9.4-.3 1.5-.1 1.6 1 .7.7-.6.7-1 .3-3.2-.6-3.5-.4-6.6.3-8 .6-.9.7-1 1-.6.4 1 1.3 7.9 1 8.5-.5 1 .2 1.2 1 .3.7-.7.9-1.1.6-1.6-.4-.8-.8-5.3-.5-6.8 0-.7.4-1.6.7-2l.6-.9.5 3.3c.4 1.8.6 3.7.5 4.2-.1 1.3.2 1.5 1 .8.4-.4.4-1 0-3.3-.6-3-.4-5 .4-6.2.4-.7.5-.6 1 2 .3 1.6.5 3.4.4 4-.2 1.4-.1 1.4.7.7.5-.4.5-.9.2-2.2-.6-2.2-.5-5.3.2-6.3.5-.8.5-.7.9 1.4.4 2.8.5 3.8.4 4.7 0 .6 0 .6.7-.2.6-.7.6-1 .3-2.4-.6-2.2-.5-4.6 0-5.5.5-.7.5-.6 1 1.8.2 1.4.3 2.8.2 3.2 0 .3 0 .6.2.6.5-.2.8-1.1.6-2-.4-1.7-.4-4.5.1-5.5l.5-.9.2 1.7.4 3c0 1 .1 1 .4.6.3-.2.3-1.4.1-2.5-.3-2.1 0-4 .4-4 .4-.2.6 1 .7 2.9 0 1 .2 1.4.4 1.3.2-.1.3-1.4.1-2.8 0-1.4 0-2.8.2-3.2.4-.6.4-.5.6.7l.2 2c0 .4.1.6.4.4.2 0 .2-1 0-2.2V50c.3-.4.5-.2.6 1 0 .9.4 1.8.6 1.4l-.1-1.5v-2.2c.3-.3.4-.2.4.7 0 1.5.7 1 .6-.4 0-1 .6-2.2 1-2.3l.1.2c.1.3 0 1.2-.4 2-.6 1.7-.6 2.1 0 1.2 1-1.2 1.4-1.4.8-.3-.3.6-.8 1-1 1.2l-.7.8c-.2.4-.4 1-.2.9l1.3-1c.7-.5 1.3-.8 1.5-.8.3.2-1.3 1.8-2.6 2.6-.8.4-1.3 1-1.3 1.3 0 .5.2.5.6.2.8-.8 3.4-1.7 3.2-1.3-.2.6-2 2-3.4 2.4a3 3 0 00-1.5 1.1c-.4.8-.4.8.1.4a8 8 0 012.6-.6l1.9-.2-1 .7c-.4.4-1.7.9-2.8 1.1-1.4.3-2 .6-2.4 1.1-.3.7-.3.7.6.5.6-.1 2-.3 3.2-.3h2l-1.1.7c-1 .5-2 .7-3.7.9-1.8.2-2.5.3-2.8.7-.4.7 0 1.1.9.9 1.3-.3 5.7.1 5.3.5-.6.7-2.8 1-5.2.8l-2.4-.1-.6.9c-.5.8-.5.9.1.7.4 0 2.1 0 3.8.4 2.7.5 3 .6 2.4 1-1 .7-3.8.7-6 .1-1.7-.4-1.8-.4-2.5.4-.9.8-.6 1.3.5 1l4 .7c3 .7 3.1.8 2.3 1.2-1.2.7-4 .6-6.5-.2-2-.6-2.1-.5-2.8.1-1 .8-.7 1.3.5 1 .4 0 2.3.4 4.2 1.1l3.6 1.3-1.7.4c-1.8.5-4.8 0-7.1-1-1.5-.6-1.7-.5-2.7.3-1 .8-.9 1.2.2 1 .6-.2 2.3.3 4.7 1.3 3.4 1.4 3.7 1.6 3 2-1.5.7-5.6 0-9.9-1.9-.5-.2-2.4 1-2.3 1.4 0 .2.6.3 1.3.3.6 0 2.8.9 4.9 1.8l3.7 1.7-1.2.4c-1.5.6-5.8-.3-8.5-1.6-2-1.1-2.2-1.1-3.4-.3l-.9.6 1.4.3c.8.1 3 1.2 5.2 2.4 3.7 2.2 3.7 2.2 2.6 2.5-1.7.4-5.6-.6-8.5-2.4-2.7-1.5-2.7-1.5-3.8-.9-1.3.8-1.3 1.2 0 1.1.7 0 2.7 1 5.5 2.7l4.4 2.7-1.6.2c-2 .3-5.5-.8-8.7-3l-2.5-1.5-1.2.8-1.1 1.1 1.4.3c.8 0 2.4.6 3.7 1.3l4.8 2.4 2.6 1.3-1.6.5c-2 .6-6-.4-10-2.6l-3-1.7-1 1c-.6.4-1 .9-1 1 0 .1.7.2 1.5.2 1 0 2.7.6 4.5 1.5l5.5 2.4 2.7 1.1-1.1.6c-2.3 1.2-8.4 0-13-2.5l-2.3-1.3-1.4 1.3a6 6 0 00-1.3 1.5c0 .1.8.2 1.6 0a8 8 0 014 .8l6.8 2.5 4.2 1.7-1.5.6c-1.7.8-4 .8-7.8 0-2.6-.6-6.6-2-7.9-3l-1.3-.4c-.5.2-2.6 2.5-2.5 3l1.4-.2c1.9-.4 3-.2 9.9 2.3l6.6 2.3c1 0 .2.6-1.8 1.3a10 10 0 01-4.8.5c-3.5-.3-8.1-1.6-11.1-3l-2.2-1.1-1.4 1.8c-.7 1-1.3 1.9-1.2 2l1.8-.2c2-.5 1.8-.5 12.3 2.2 6.6 1.6 6.8 1.7 6 2.3-3.2 2.6-11.9 2.4-19.3-.3l-2.9-1c-.2.2-7.1 14.6-7 14.9z"></path><text font-size="150" transform="rotate(-4 1113.6 -5056.3) scale(.2)">N</text><text x="300" y="300" font-size="150" transform="rotate(-4 1113.6 -5056.3) scale(.2)">Z</text></g></g></g></svg>