<svg xmlns="http://www.w3.org/2000/svg" xmlns:xlink="http://www.w3.org/1999/xlink" width="500" height="230" viewBox="0 0 500 230"><defs><path id="spoonPath" d="M 105,75 C 105,76 106,77 107,77 C 139,89 170,149 177,181 C 231,199 389,201 455,201 C 458,201 461,198 461,195 L 450,27 C 450,24 447,21 444,21 L 113,43 C 112,43 111,44 111,45  Z"></path><clipPath id="spoonClip"><use xlink:href="#spoonPath"></use></clipPath></defs><g><use xlink:href="#spoonPath" style="stroke:black;stroke-width:1;fill:#003380"></use><g clip-rule="nonzero" clip-path="url(#spoonClip)"><clipPath id="vert30stripe"><rect transform="rotate(-4) scale(0.63 0.81) translate(210,60)" x="33.333%" y="0%" width="33.333%" height="100%"></rect></clipPath><g><g clip-path="url(#vert30stripe)"><rect fill="#F2F2F2" x="0" y="0" width="100%" height="100%"></rect></g><rect transform="rotate(-4) scale(0.63 0.81) translate(210,60)" x="66.666%" y="0%" width="33.333%" height="100%" fill="#A02C2C"></rect></g></g></g></svg>