<svg xmlns="http://www.w3.org/2000/svg" xmlns:xlink="http://www.w3.org/1999/xlink" width="500" height="230" viewBox="0 0 500 230"><defs><path id="spoonPath" d="M 105,75 C 105,76 106,77 107,77 C 139,89 170,149 177,181 C 231,199 389,201 455,201 C 458,201 461,198 461,195 L 450,27 C 450,24 447,21 444,21 L 113,43 C 112,43 111,44 111,45  Z"></path><clipPath id="spoonClip"><use xlink:href="#spoonPath"></use></clipPath></defs><g><use xlink:href="#spoonPath" style="stroke:black;stroke-width:1;fill:#ff0000"></use><g clip-rule="nonzero" clip-path="url(#spoonClip)"><clipPath id="t"><path d="M0,0 L22.5,15 L0,30"></path></clipPath><g transform=" translate(0,-60)"><g transform="translate(460,260) rotate(178) scale(6)"><rect width="60" style="fill:#ffffff" height="10" y="10"></rect><rect width="60" height="10" style="fill:#0c1c8c"></rect><path d="M0,0 L22.5,15 L0,30" style="fill:none;stroke:#ffffff;stroke-width:10"></path><path d="M0,0 L22.5,15 L0,30" clip-path="url(#t)" style="fill:#000000;stroke:#fcb514;stroke-width:10"></path><path d="M0,0 L22.5,15 L0,30" style="stroke:#007c59;stroke-width:6;fill:none"></path><rect width="60" height="6" x="22.5" y="12" style="fill:#007c59"></rect></g></g></g></g></svg>