<svg xmlns="http://www.w3.org/2000/svg" xmlns:xlink="http://www.w3.org/1999/xlink" width="500" height="230" viewBox="0 0 500 230"><defs><path id="spoonPath" d="M 105,75 C 105,76 106,77 107,77 C 139,89 170,149 177,181 C 231,199 389,201 455,201 C 458,201 461,198 461,195 L 450,27 C 450,24 447,21 444,21 L 113,43 C 112,43 111,44 111,45  Z"></path><clipPath id="spoonClip"><use xlink:href="#spoonPath"></use></clipPath></defs><g><use xlink:href="#spoonPath" style="stroke:black;stroke-width:1;fill:#00AEEF"></use><g clip-rule="nonzero" clip-path="url(#spoonClip)"><g transform="matrix(0.99756405,-0.06975647,0.06975647,0.99756405,397.77684,-2.7542188)"><path d="m -30.534,26.522 -0.521,174.724 58.477,4.757 0.136,-178.76 -58.092,-0.721 z" style="fill:#2e3192"></path></g></g></g></svg>