<svg xmlns="http://www.w3.org/2000/svg" xmlns:xlink="http://www.w3.org/1999/xlink" width="500" height="230" viewBox="0 0 500 230"><defs><path id="spoonPath" d="M 105,75 C 105,76 106,77 107,77 C 139,89 170,149 177,181 C 231,199 389,201 455,201 C 458,201 461,198 461,195 L 450,27 C 450,24 447,21 444,21 L 113,43 C 112,43 111,44 111,45  Z"></path><clipPath id="spoonClip"><use xlink:href="#spoonPath"></use></clipPath></defs><g><use xlink:href="#spoonPath" style="stroke:black;stroke-width:1;fill:#000000"></use><g clip-rule="nonzero" clip-path="url(#spoonClip)"><g transform="matrix(0.6894712,0,0,-0.7198232,391.91121,113.98719)" style="fill:#fbffff;fill-opacity:1"><path d="m 0,0 c 0.148,4.621 -0.519,9.009 -1.96,13.143 -1.544,4.097 -3.844,7.893 -6.919,11.346 -1.615,1.814 -3.756,2.384 -6.055,0.991 -1.771,-1.073 -7.01,-2.942 -13.44,-14.151 -0.315,-0.549 -0.275,-1.551 -0.037,-2.216 0.596,-1.666 1.182,-3.281 1.776,-4.916 0.591,-1.636 1.178,-3.251 1.787,-4.912 0.244,-0.663 0.855,-1.458 1.449,-1.678 C -11.28,-6.876 -6.06,-4.953 -4.013,-4.642 -1.355,-4.237 -0.078,-2.428 0,0" style="fill:#fbffff;fill-opacity:1;fill-rule:nonzero;stroke:none"></path></g><g transform="matrix(0.6894712,0,0,-0.7198232,374.43623,87.413834)" style="fill:#fbffff;fill-opacity:1"><path d="m 0,0 c -4.342,1.59 -8.717,2.332 -13.095,2.26 -4.375,-0.18 -8.7,-1.174 -12.943,-3.011 -2.229,-0.965 -3.442,-2.819 -2.84,-5.439 0.464,-2.018 0.595,-7.579 9.222,-17.2 0.423,-0.471 1.387,-0.748 2.093,-0.73 1.768,0.044 3.486,0.093 5.225,0.144 1.739,0.049 3.457,0.1 5.225,0.157 0.706,0.023 1.652,0.355 2.047,0.85 8.058,10.102 7.869,15.661 8.215,17.703 C 3.599,-2.616 2.281,-0.835 0,0" style="fill:#fbffff;fill-opacity:1;fill-rule:nonzero;stroke:none"></path></g><g transform="matrix(0.6894712,0,0,-0.7198232,343.82481,128.09709)" style="fill:#fbffff;fill-opacity:1"><path d="m 0,0 c 2.375,-3.967 5.308,-7.297 8.756,-9.996 3.514,-2.612 7.501,-4.561 11.955,-5.802 2.34,-0.653 4.449,0.025 5.63,2.44 0.909,1.86 4.305,6.266 3.653,19.171 -0.032,0.632 -0.607,1.454 -1.167,1.884 -1.403,1.079 -2.768,2.121 -4.152,3.176 -1.383,1.055 -2.749,2.097 -4.16,3.165 -0.563,0.426 -1.508,0.764 -2.126,0.628 C 5.77,11.883 2.419,7.443 0.866,6.075 -1.152,4.297 -1.247,2.084 0,0" style="fill:#fbffff;fill-opacity:1;fill-rule:nonzero;stroke:none"></path></g><g transform="matrix(0.6894712,0,0,-0.7198232,344.92907,96.215834)" style="fill:#fbffff;fill-opacity:1"><path d="m 0,0 c -2.902,-3.599 -5.014,-7.503 -6.355,-11.671 -1.237,-4.2 -1.688,-8.615 -1.314,-13.223 0.196,-2.421 1.56,-4.166 4.235,-4.44 2.06,-0.21 7.367,-1.876 19.253,3.196 0.582,0.248 1.154,1.072 1.365,1.746 0.527,1.689 1.033,3.331 1.545,4.994 0.513,1.662 1.018,3.304 1.533,4.997 0.205,0.676 0.196,1.679 -0.146,2.211 C 13.145,-1.309 7.821,0.301 6,1.286 3.635,2.565 1.525,1.891 0,0" style="fill:#fbffff;fill-opacity:1;fill-rule:nonzero;stroke:none"></path></g><g transform="matrix(0.6894712,0,0,-0.7198232,373.47869,139.9181)" style="fill:#fbffff;fill-opacity:1"><path d="m 0,0 c 4.441,1.288 8.407,3.279 11.893,5.927 3.42,2.735 6.318,6.096 8.651,10.088 1.226,2.097 1.106,4.309 -0.929,6.065 -1.568,1.352 -4.965,5.757 -17.613,8.407 -0.619,0.13 -1.56,-0.218 -2.119,-0.65 C -1.516,28.754 -2.872,27.698 -4.243,26.628 -5.616,25.559 -6.971,24.503 -8.362,23.409 -8.917,22.973 -9.484,22.145 -9.509,21.513 -10.026,8.601 -6.584,4.232 -5.655,2.382 -4.449,-0.021 -2.333,-0.677 0,0" style="fill:#fbffff;fill-opacity:1;fill-rule:nonzero;stroke:none"></path></g><g transform="matrix(0.6894712,0,0,-0.7198232,383.2447,80.529154)" style="fill:#fbffff;fill-opacity:1"><path d="m 0,0 c 3.444,-2.371 6.567,-3.639 10.002,-5.126 6.043,-2.615 8.545,-7.741 9.934,-13.836 -0.558,0.653 -1.166,1.27 -1.667,1.964 -2.369,3.284 -5.502,5.447 -9.303,6.838 -5.755,2.106 -11.069,5.004 -15.271,9.601 -2.382,2.605 -4.161,5.534 -4.546,8.789 C -7.425,5.358 -3.763,2.591 0,0 m -20.929,9.866 c -2.801,-4.946 -2.773,-10.152 -1.646,-15.458 11.442,-2.109 11.442,-2.109 15.209,-7.505 2.353,1.023 4.736,2.059 7.435,3.232 -0.414,-2.886 -0.78,-5.444 -1.148,-8.014 9.099,-0.295 10.466,-8.06 13.869,-13.794 4.947,0.914 9.749,1.956 13.469,5.684 3.741,3.748 4.362,7.603 1.566,12.086 -1.259,2.019 -2.748,3.931 -4.353,5.691 C 17.018,-1.137 9.6,4.789 1.16,9.29 c -3.904,2.083 -8.065,3.846 -12.306,5.085 -4.298,1.256 -7.58,-0.619 -9.783,-4.509" style="fill:#fbffff;fill-opacity:1;fill-rule:nonzero;stroke:none"></path></g><g transform="matrix(0.6894712,0,0,-0.7198232,341.28776,85.512854)" style="fill:#fbffff;fill-opacity:1"><path d="m 0,0 c 3.332,2.527 5.515,5.094 8.004,7.89 4.379,4.918 10.031,5.686 16.253,5.094 C 23.462,12.658 22.686,12.275 21.87,12.017 18.009,10.797 14.972,8.5 12.46,5.328 8.655,0.523 4.237,-3.614 -1.446,-6.163 -4.667,-7.607 -8.006,-8.377 -11.218,-7.722 -7.416,-5.37 -3.64,-2.761 0,0 m -15.931,-16.779 c 3.817,-4.211 8.769,-5.817 14.161,-6.411 5.591,10.204 5.591,10.204 11.896,12.088 -0.233,2.556 -0.469,5.143 -0.737,8.074 2.61,-1.298 4.925,-2.448 7.249,-3.604 3.134,8.549 10.936,7.411 17.449,8.844 0.682,4.984 1.199,9.871 -1.174,14.572 -2.385,4.727 -5.852,6.527 -10.985,5.277 C 19.616,21.499 17.333,20.685 15.159,19.712 6.417,15.803 -1.536,10.618 -8.458,4.015 c -3.201,-3.054 -6.181,-6.452 -8.687,-10.09 -2.54,-3.688 -1.789,-7.393 1.214,-10.704" style="fill:#fbffff;fill-opacity:1;fill-rule:nonzero;stroke:none"></path></g><g transform="matrix(0.6894712,0,0,-0.7198232,332.53568,128.37004)" style="fill:#fbffff;fill-opacity:1"><path d="m 0,0 c -1.32,3.968 -3.048,6.861 -4.894,10.117 -3.247,5.729 -2.154,11.327 0.409,17.028 0.052,-0.857 0.165,-1.716 0.147,-2.571 -0.088,-4.049 1.109,-7.663 3.304,-11.063 C 2.291,8.363 4.786,2.848 5.369,-3.353 5.7,-6.867 5.355,-10.276 3.701,-13.107 2.697,-8.75 1.442,-4.335 0,0 m 10.759,-20.484 c 5.215,2.259 8.329,6.43 10.627,11.345 -7.861,8.577 -7.861,8.577 -7.615,15.153 -2.495,0.602 -5.021,1.211 -7.882,1.9 2.069,2.054 3.903,3.875 5.745,5.704 -7.085,5.719 -3.496,12.739 -2.757,19.367 -4.499,2.25 -8.959,4.313 -14.174,3.579 -5.244,-0.737 -8.063,-3.44 -8.532,-8.702 -0.212,-2.37 -0.176,-4.794 0.045,-7.165 0.887,-9.535 3.237,-18.734 7.26,-27.413 1.861,-4.013 4.12,-7.929 6.758,-11.472 2.673,-3.592 6.422,-4.074 10.525,-2.296" style="fill:#fbffff;fill-opacity:1;fill-rule:nonzero;stroke:none"></path></g><g transform="matrix(0.6894712,0,0,-0.7198232,373.80818,150.1077)" style="fill:#fbffff;fill-opacity:1"><path d="m 0,0 c -6.024,-0.49 -12.033,-1.289 -18.008,-2.22 -6.13,-0.956 -10.974,1.473 -15.365,5.525 0.755,-0.187 1.527,-0.322 2.26,-0.571 3.834,-1.307 7.627,-1.236 11.525,-0.113 6.122,1.764 12.365,2.545 18.695,1.203 C 2.324,3.142 5.282,1.877 7.879,-0.961 4.961,-0.573 2.441,0.199 0,0 M 15.603,2.692 C 15.293,8.42 12.132,12.598 8.53,16.182 5.528,14.98 2.854,13.745 0.073,12.839 c -2.954,-0.963 -5.789,-0.396 -8.283,1.748 -1.482,-2.441 -2.829,-4.661 -4.341,-7.154 -1.292,2.564 -2.426,4.816 -3.66,7.265 -3.061,-2.927 -6.426,-2.741 -9.748,-1.354 -3.205,1.339 -6.263,3.026 -9.666,4.697 -1.654,-1.905 -3.649,-3.882 -5.273,-6.128 -5.933,-8.205 -3.51,-15.557 6.018,-18.593 0.608,-0.194 1.222,-0.371 1.84,-0.528 9.779,-2.474 19.725,-3.073 29.715,-2.089 4.404,0.434 8.841,1.35 13.051,2.706 4.506,1.45 6.132,4.559 5.877,9.283" style="fill:#fbffff;fill-opacity:1;fill-rule:nonzero;stroke:none"></path></g><g transform="matrix(0.6894712,0,0,-0.7198232,332.96267,157.69528)" style="fill:#fbffff;fill-opacity:1"><path d="M 0,0 C 4.872,1.979 9.484,3.854 13.856,5.629 12.951,9.584 12.015,13.623 11.496,15.896 9.174,15.678 5.046,15.301 1.006,14.922 0.689,10.214 0.353,5.247 0,0" style="fill:#fbffff;fill-opacity:1;fill-rule:nonzero;stroke:none"></path></g><g transform="matrix(0.6894712,0,0,-0.7198232,315.56807,94.698874)" style="fill:#fbffff;fill-opacity:1"><path d="m 0,0 c 3.266,-4.121 6.359,-8.023 9.29,-11.72 3.542,1.977 7.157,4.008 9.192,5.144 -0.86,2.167 -2.38,6.024 -3.877,9.795 C 9.998,2.203 5.135,1.132 0,0" style="fill:#fbffff;fill-opacity:1;fill-rule:nonzero;stroke:none"></path></g><g transform="matrix(0.6894712,0,0,-0.7198232,365.56804,57.864374)" style="fill:#fbffff;fill-opacity:1"><path d="M 0,0 C 2.788,-4.459 5.427,-8.681 7.929,-12.681 4.878,-15.356 1.753,-18.08 0,-19.617 c -1.753,1.537 -4.878,4.261 -7.929,6.936 2.502,4 5.141,8.222 7.929,12.681" style="fill:#fbffff;fill-opacity:1;fill-rule:nonzero;stroke:none"></path></g><g transform="matrix(0.6894712,0,0,-0.7198232,395.31169,157.86437)" style="fill:#fbffff;fill-opacity:1"><path d="m 0,0 c -4.872,1.979 -9.484,3.854 -13.856,5.629 0.905,3.955 1.841,7.994 2.36,10.267 2.322,-0.218 6.45,-0.595 10.49,-0.974 C -0.689,10.214 -0.353,5.247 0,0" style="fill:#fbffff;fill-opacity:1;fill-rule:nonzero;stroke:none"></path></g><g transform="matrix(0.6894712,0,0,-0.7198232,415.56807,96.495624)" style="fill:#fbffff;fill-opacity:1"><path d="m 0,0 c -3.266,-4.121 -6.359,-8.023 -9.29,-11.72 -3.542,1.977 -7.157,4.008 -9.192,5.145 0.86,2.166 2.38,6.023 3.877,9.794 C -9.998,2.203 -5.135,1.132 0,0" style="fill:#fbffff;fill-opacity:1;fill-rule:nonzero;stroke:none"></path></g><g transform="matrix(0.6894712,0,0,-0.7198232,364.25095,120.70904)" style="fill:#fbffff;fill-opacity:1"><path d="M 0,0 -7.422,5.393 C -8.561,6.22 -9.038,7.687 -8.603,9.026 l 2.835,8.726 c 0.435,1.339 1.683,2.245 3.091,2.245 h 9.175 c 1.408,0 2.655,-0.906 3.091,-2.245 L 12.424,9.026 C 12.859,7.687 12.382,6.22 11.243,5.393 L 3.821,0 C 2.682,-0.828 1.139,-0.828 0,0" style="fill:#fbffff;fill-opacity:1;fill-rule:nonzero;stroke:none"></path></g><g transform="matrix(0.6894712,0,0,-0.7198232,403.88823,110.91837)" style="fill:#fbffff;fill-opacity:1"><path d="m 0,0 c -1.165,-1.787 -2.103,-3.637 -2.868,-5.536 -1.721,-4.271 -2.562,-8.787 -3.123,-13.371 -0.187,-1.527 -0.343,-3.063 -0.49,-4.599 -0.04,-0.412 -0.092,-0.814 -0.157,-1.207 -0.129,-0.787 -0.307,-1.537 -0.531,-2.254 -0.559,-1.793 -1.4,-3.381 -2.462,-4.822 -0.425,-0.577 -0.885,-1.13 -1.377,-1.663 -0.983,-1.067 -2.091,-2.054 -3.293,-2.992 -0.601,-0.469 -1.225,-0.925 -1.869,-1.373 0.188,0.443 0.38,0.881 0.572,1.314 0.769,1.731 1.558,3.39 2.253,5.046 0.347,0.829 0.672,1.656 0.958,2.493 0.144,0.418 0.278,0.838 0.401,1.262 0.225,0.773 0.352,1.573 0.429,2.388 0.046,0.489 0.074,0.983 0.095,1.48 0.021,0.497 0.033,0.996 0.049,1.495 0.01,0.332 0.022,0.665 0.037,0.996 0.024,0.498 0.057,0.993 0.109,1.484 0.134,1.241 0.313,2.47 0.549,3.682 0.117,0.605 0.249,1.207 0.396,1.804 0.146,0.597 0.308,1.189 0.487,1.776 0.178,0.587 0.373,1.169 0.585,1.745 0.636,1.729 1.431,3.407 2.417,5.02 0.411,0.672 0.849,1.317 1.321,1.929 0.472,0.611 0.979,1.188 1.526,1.724 0.547,0.537 1.134,1.031 1.77,1.477 0.635,0.446 1.318,0.843 2.054,1.184 C -0.102,0.314 -0.015,0.168 0.006,0.074 0.012,0.043 0.012,0.018 0,0 m 5.485,-0.201 c -0.137,5.664 -3.148,8.877 -8.717,9.554 -4.815,0.586 -9.095,-0.918 -12.986,-3.01 0.272,-3.248 0.646,-6.253 0.741,-9.267 0.101,-3.209 -1.289,-5.819 -4.033,-7.678 1.767,-2.082 3.393,-3.999 5.235,-6.169 -2.9,-0.456 -5.387,-0.847 -7.842,-1.233 2.673,-8.327 -3.846,-11.925 -8.361,-16.798 1.311,-2.077 2.375,-4.5 4.076,-6.332 7.382,-7.947 13.628,-7.436 18.836,0.388 4.417,6.636 7.522,13.886 9.785,21.5 1.847,6.212 3.424,12.493 3.266,19.045" style="fill:#fbffff;fill-opacity:1;fill-rule:nonzero;stroke:none"></path></g><g transform="matrix(0.6894712,0,0,-0.7198232,365.56804,57.864374)" style="fill:#fbffff;fill-opacity:1"><path d="m 0,0 c -2.788,-4.459 -5.427,-8.681 -7.929,-12.681 3.051,-2.675 6.176,-5.399 7.929,-6.936 1.753,1.537 4.878,4.261 7.929,6.936 C 5.427,-8.681 2.788,-4.459 0,0" style="fill:#fbffff;fill-opacity:1;fill-rule:nonzero;stroke:none"></path></g></g></g></svg>