<svg xmlns="http://www.w3.org/2000/svg" xmlns:xlink="http://www.w3.org/1999/xlink" width="500" height="230" viewBox="0 0 500 230"><defs><path id="spoonPath" d="M 105,75 C 105,76 106,77 107,77 C 139,89 170,149 177,181 C 231,199 389,201 455,201 C 458,201 461,198 461,195 L 450,27 C 450,24 447,21 444,21 L 113,43 C 112,43 111,44 111,45  Z"></path><clipPath id="spoonClip"><use xlink:href="#spoonPath"></use></clipPath></defs><g><use xlink:href="#spoonPath" style="stroke:black;stroke-width:1;fill:#f0f0f0"></use><g clip-rule="nonzero" clip-path="url(#spoonClip)"><g transform="rotate(-4) translate(435,20)"><path d="M -100,100 l 0,50" style="stroke-width:100;stroke:#000050"></path><path d="M 0,0 l 0,250" style="stroke-width:30;stroke:#B00000"></path><path d="M -150,100 l 100,50" style="stroke-width:8;stroke:#f0f0f0"></path><path d="M -150,150 l 100,-50" style="stroke-width:8;stroke:#f0f0f0"></path><path d="M -150,100 l 100,50" style="stroke-width:3;stroke:#B00000"></path><path d="M -150,150 l 100,-50" style="stroke-width:3;stroke:#B00000"></path><path d="M -100,100 l 00,50" style="stroke-width:14;stroke:#f0f0f0"></path><path d="M -150,125 l 100,00" style="stroke-width:14;stroke:#f0f0f0"></path><path d="M -100,100 l 00,50" style="stroke-width:8;stroke:#B00000"></path><path d="M -150,125 l 100,00" style="stroke-width:8;stroke:#B00000"></path><path d="M -100,150 l 0,10" style="stroke-width:120;stroke:#f0f0f0"></path><path d="M -100,90 l 00,10" style="stroke-width:120;stroke:#f0f0f0"></path><path d="M -155,90 l 00,70" style="stroke-width:10;stroke:#f0f0f0"></path><path d="M -45,90 l 00,70" style="stroke-width:10;stroke:#f0f0f0"></path></g></g></g></svg>