<svg xmlns="http://www.w3.org/2000/svg" xmlns:xlink="http://www.w3.org/1999/xlink" width="500" height="230" viewBox="0 0 500 230"><defs><path id="spoonPath" d="M 105,75 C 105,76 106,77 107,77 C 139,89 170,149 177,181 C 231,199 389,201 455,201 C 458,201 461,198 461,195 L 450,27 C 450,24 447,21 444,21 L 113,43 C 112,43 111,44 111,45  Z"></path><clipPath id="spoonClip"><use xlink:href="#spoonPath"></use></clipPath></defs><g><use xlink:href="#spoonPath" style="stroke:black;stroke-width:1;fill:#800080"></use><g clip-rule="nonzero" clip-path="url(#spoonClip)"><g><path d="m 396.15605,25.301409 23.99452,-1.642361 14.7652,176.234292 -23.90835,-0.2131 z" style="fill:#fdd017;stroke:#fdd017;stroke-width:1"></path><path d="m 357.75677,27.187088 23.99452,-1.642361 14.7652,174.434323 -23.90835,-0.55595 z" style="fill:#fdd017;stroke:none"></path></g></g></g></svg>