<svg xmlns="http://www.w3.org/2000/svg" xmlns:xlink="http://www.w3.org/1999/xlink" width="500" height="230" viewBox="0 0 500 230"><defs><path id="spoonPath" d="M 105,75 C 105,76 106,77 107,77 C 139,89 170,149 177,181 C 231,199 389,201 455,201 C 458,201 461,198 461,195 L 450,27 C 450,24 447,21 444,21 L 113,43 C 112,43 111,44 111,45  Z"></path><clipPath id="spoonClip"><use xlink:href="#spoonPath"></use></clipPath></defs><g><use xlink:href="#spoonPath" style="stroke:black;stroke-width:1;fill:#780025"></use><g clip-rule="nonzero" clip-path="url(#spoonClip)"><g transform="matrix(0.65386408,0,0,0.65386408,32.566722,-135.8729)" style="fill:#ffffff;stroke:#ffffff"><path d="m 538.74596,418.05956 c 1.35639,-0.1009 2.58832,-0.72665 3.45468,-1.5978 1.77142,-1.78123 2.1111,-2.23858 2.1111,-5.11287 l -0.0956,-50.04276 0.0292,0 0.15973,-50.52208 c 0.69082,-3.63935 -0.11358,-3.22553 2.27114,-5.65618 -0.99651,-0.64547 -1.98875,-0.92317 -2.9428,-0.95865 -0.19873,-0.005 -0.3821,-0.0149 -0.57568,0 -1.35636,0.1009 -2.58831,0.72664 -3.45457,1.5978 -1.77152,1.78122 -2.11115,2.23862 -2.11115,5.11291 l 0.0956,50.04275 -0.0291,0 -0.15973,50.52204 c -0.69081,3.63938 0.11359,3.22553 -2.27112,5.65618 0.99658,0.64548 1.98874,0.9232 2.94287,0.95866 0.19874,0.005 0.3821,0.0149 0.57566,0 z" style="fill:#ffffff;stroke:#ffffff;stroke-width:0"></path><path style="fill:#ffffff;stroke:#ffffff;stroke-width:0" d="m 579.65873,402.94141 c 0.88809,-1.03019 1.31645,-2.34403 1.31299,-3.57259 -0.005,-2.51214 -0.0901,-3.07571 -2.12252,-5.10822 l -35.45341,-35.31769 0.0203,-0.0204 -35.61145,-35.8376 c -2.08473,-3.06211 -2.36128,-2.20031 -2.39361,-5.60545 -1.16106,0.24826 -2.05897,0.7535 -2.75869,1.40302 -0.14534,0.13525 -0.28002,0.25962 -0.4073,0.40726 -0.88808,1.03019 -1.31644,2.34404 -1.31296,3.5726 0.005,2.51218 0.0901,3.07578 2.1225,5.1082 l 35.45341,35.31778 -0.0203,0.0203 35.61143,35.83762 c 2.08474,3.06201 2.36129,2.20022 2.39361,5.60536 1.16108,-0.24827 2.05897,-0.75348 2.7587,-1.40302 0.14535,-0.13526 0.28003,-0.2599 0.40728,-0.40726 z"></path><path d="m 597.89831,363.32152 c -0.1009,-1.35639 -0.72665,-2.58833 -1.5978,-3.45459 -1.78142,-1.77129 -2.23866,-2.11115 -5.11293,-2.11115 l -50.04276,0.0956 0,-0.0291 -50.52208,-0.15973 c -3.63937,-0.69083 -3.22552,0.11358 -5.6561,-2.27111 -0.64549,0.99651 -0.92319,1.98875 -0.95874,2.94279 -0.005,0.19872 -0.0149,0.3821 0,0.57567 0.1009,1.35639 0.72665,2.58832 1.59781,3.45456 1.78143,1.7713 2.23868,2.11118 5.11297,2.11118 l 50.04275,-0.0959 0,0.0292 50.52208,0.15974 c 3.63934,0.69081 3.22551,-0.11359 5.65614,2.27112 0.64552,-0.99659 0.92311,-1.98877 0.95866,-2.94287 0.005,-0.19872 0.0149,-0.3821 0,-0.57569 z" style="fill:#ffffff;stroke:#ffffff;stroke-width:0"></path><path style="fill:#ffffff;stroke:#ffffff;stroke-width:0" d="m 582.78007,322.40879 c -1.03015,-0.88805 -2.34409,-1.31641 -3.57255,-1.31297 -2.5122,0.005 -3.0758,0.0901 -5.10823,2.1226 l -35.31779,35.45336 -0.0204,-0.0204 -35.83763,35.61142 c -3.06211,2.08477 -2.20022,2.36132 -5.60536,2.3936 0.24825,1.16109 0.75348,2.05907 1.40298,2.75882 0.13525,0.14534 0.25992,0.28002 0.40731,0.40729 1.03018,0.88806 2.34401,1.31641 3.57257,1.31298 2.51211,-0.005 3.07571,-0.0901 5.10822,-2.12253 l 35.3177,-35.45342 0.0204,0.0204 35.8376,-35.61137 c 3.06211,-2.08481 2.20032,-2.36135 5.60544,-2.39365 -0.24825,-1.16107 -0.75348,-2.059 -1.403,-2.75873 -0.13526,-0.14534 -0.25991,-0.28002 -0.4073,-0.40729 z"></path><path transform="matrix(0.99504378,0,0,0.99504378,184.15885,70.201165)" d="m 370.35716,292.36218 c 0,6.50907 -5.27665,11.78572 -11.78572,11.78572 -6.50907,0 -11.78571,-5.27665 -11.78571,-11.78572 0,-6.50907 5.27664,-11.78571 11.78571,-11.78571 6.50907,0 11.78572,5.27664 11.78572,11.78571 z" style="fill:#ffffff;fill-opacity:1;stroke:#ffffff;stroke-width:0"></path><path transform="matrix(3.6544449,0,0,3.6544449,-769.42641,-707.30716)" d="m 370.35716,292.36218 c 0,6.50907 -5.27665,11.78572 -11.78572,11.78572 -6.50907,0 -11.78571,-5.27665 -11.78571,-11.78572 0,-6.50907 5.27664,-11.78571 11.78571,-11.78571 6.50907,0 11.78572,5.27664 11.78572,11.78571 z" style="fill:none;stroke:#ffffff;stroke-width:3.86204243"></path></g></g></g></svg>