<svg xmlns="http://www.w3.org/2000/svg" xmlns:xlink="http://www.w3.org/1999/xlink" width="500" height="230" viewBox="0 0 500 230"><defs><path id="spoonPath" d="M 105,75 C 105,76 106,77 107,77 C 139,89 170,149 177,181 C 231,199 389,201 455,201 C 458,201 461,198 461,195 L 450,27 C 450,24 447,21 444,21 L 113,43 C 112,43 111,44 111,45  Z"></path><clipPath id="spoonClip"><use xlink:href="#spoonPath"></use></clipPath></defs><g><use xlink:href="#spoonPath" style="stroke:black;stroke-width:1;fill:#add8e6"></use><g clip-rule="nonzero" clip-path="url(#spoonClip)"><g transform="matrix(0.28266997,-0.02406952,0.02406952,0.28266997,323.94612,-142.59428)" style="fill:#ffffff;stroke:none"><path d="m 75.70255,758.86218 c 30.0825,37.7971 39.7439,76.0451 37.9979,106.9883 -30.9796,1.8011 -69.319,-7.8481 -107.2006,-37.9978 2.9542,24.4032 16.7929,44.5271 16.7929,74.2974 0,29.7703 -13.8387,50.1066 -16.7929,74.5097 37.8816,-30.1496 76.221,-40.0111 107.2006,-38.2101 l 0,0.212 c 1.801,30.9796 -7.8481,69.31902 -37.9979,107.20052 24.4032,-2.9542 44.5272,-16.7929 74.2975,-16.7929 29.7703,0 50.1065,13.8387 74.5097,16.7929 -30.1497,-37.8815 -40.0112,-76.22092 -38.2101,-107.20052 l 0,-0.212 c 30.9796,-1.801 69.319,8.0605 107.2005,38.2101 -2.9542,-24.4031 -16.7929,-44.7394 -16.7929,-74.5097 0,-29.7703 13.8387,-49.8942 16.7929,-74.2974 -37.8815,30.1497 -76.2209,39.7989 -107.2005,37.9978 -1.7451,-30.9432 8.1276,-69.1912 38.2101,-106.9883 -24.4032,2.9543 -44.7394,16.7929 -74.5097,16.7929 -29.7703,0 -49.8943,-13.8386 -74.2975,-16.7929 z" style="fill:#ffffff;stroke:none"></path></g></g></g></svg>